
<svg xmlns="http://www.w3.org/2000/svg" xmlns:xlink="http://www.w3.org/1999/xlink" width="25%" zoomAndPan="magnify" viewBox="0 0 375 374.999991" height="width" preserveAspectRatio="xMidYMid meet" version="1.0"><defs><clipPath id="id1"><path d="M 17.171875 0 L 357.515625 0 L 357.515625 340 L 17.171875 340 Z M 17.171875 0 " clip-rule="nonzero"/></clipPath><clipPath id="id2"><path d="M 134.308594 77.820312 L 240.878906 77.820312 L 240.878906 148 L 134.308594 148 Z M 134.308594 77.820312 " clip-rule="nonzero"/></clipPath><clipPath id="id3"><path d="M 134.308594 77.820312 L 210 77.820312 L 210 207 L 134.308594 207 Z M 134.308594 77.820312 " clip-rule="nonzero"/></clipPath><clipPath id="id4"><path d="M 134.308594 137 L 210 137 L 210 265.179688 L 134.308594 265.179688 Z M 134.308594 137 " clip-rule="nonzero"/></clipPath><clipPath id="id5"><path d="M 165 77.820312 L 240.878906 77.820312 L 240.878906 207 L 165 207 Z M 165 77.820312 " clip-rule="nonzero"/></clipPath><clipPath id="id6"><path d="M 165 137 L 240.878906 137 L 240.878906 265.179688 L 165 265.179688 Z M 165 137 " clip-rule="nonzero"/></clipPath><clipPath id="id7"><path d="M 134.308594 212 L 240.878906 212 L 240.878906 265.179688 L 134.308594 265.179688 Z M 134.308594 212 " clip-rule="nonzero"/></clipPath></defs><path fill="#ffffff" d="M 356.636719 170.222656 C 356.636719 172.992188 356.570312 175.757812 356.433594 178.523438 C 356.296875 181.285156 356.09375 184.046875 355.824219 186.800781 C 355.550781 189.554688 355.214844 192.300781 354.808594 195.039062 C 354.402344 197.777344 353.929688 200.503906 353.390625 203.21875 C 352.851562 205.933594 352.246094 208.632812 351.574219 211.320312 C 350.902344 214.003906 350.164062 216.671875 349.359375 219.320312 C 348.558594 221.96875 347.691406 224.597656 346.757812 227.203125 C 345.828125 229.808594 344.832031 232.390625 343.773438 234.949219 C 342.714844 237.503906 341.59375 240.035156 340.414062 242.539062 C 339.230469 245.039062 337.988281 247.511719 336.683594 249.953125 C 335.378906 252.394531 334.015625 254.800781 332.59375 257.175781 C 331.171875 259.550781 329.695312 261.886719 328.15625 264.1875 C 326.621094 266.492188 325.03125 268.753906 323.382812 270.976562 C 321.734375 273.199219 320.035156 275.382812 318.277344 277.519531 C 316.523438 279.660156 314.71875 281.757812 312.863281 283.808594 C 311.003906 285.859375 309.097656 287.863281 307.140625 289.820312 C 305.1875 291.777344 303.183594 293.683594 301.136719 295.542969 C 299.085938 297.402344 296.992188 299.210938 294.855469 300.964844 C 292.714844 302.722656 290.535156 304.425781 288.316406 306.074219 C 286.09375 307.722656 283.832031 309.316406 281.535156 310.851562 C 279.234375 312.390625 276.898438 313.871094 274.527344 315.292969 C 272.15625 316.71875 269.75 318.082031 267.308594 319.386719 C 264.871094 320.691406 262.402344 321.933594 259.902344 323.117188 C 257.402344 324.300781 254.875 325.421875 252.320312 326.484375 C 249.761719 327.542969 247.183594 328.539062 244.578125 329.472656 C 241.976562 330.402344 239.351562 331.269531 236.703125 332.074219 C 234.058594 332.878906 231.394531 333.617188 228.710938 334.289062 C 226.027344 334.960938 223.328125 335.566406 220.617188 336.109375 C 217.90625 336.648438 215.179688 337.121094 212.445312 337.527344 C 209.710938 337.933594 206.964844 338.273438 204.214844 338.542969 C 201.460938 338.816406 198.703125 339.019531 195.941406 339.152344 C 193.179688 339.289062 190.414062 339.359375 187.648438 339.359375 C 184.882812 339.359375 182.121094 339.289062 179.359375 339.152344 C 176.59375 339.019531 173.839844 338.816406 171.085938 338.542969 C 168.332031 338.273438 165.589844 337.933594 162.855469 337.527344 C 160.117188 337.121094 157.394531 336.648438 154.683594 336.109375 C 151.96875 335.566406 149.273438 334.960938 146.589844 334.289062 C 143.90625 333.617188 141.242188 332.878906 138.59375 332.074219 C 135.949219 331.269531 133.324219 330.402344 130.71875 329.472656 C 128.117188 328.539062 125.535156 327.542969 122.980469 326.484375 C 120.425781 325.421875 117.898438 324.300781 115.398438 323.117188 C 112.898438 321.933594 110.429688 320.691406 107.988281 319.386719 C 105.550781 318.082031 103.144531 316.71875 100.773438 315.292969 C 98.398438 313.871094 96.066406 312.390625 93.765625 310.851562 C 91.464844 309.316406 89.203125 307.722656 86.984375 306.074219 C 84.761719 304.425781 82.582031 302.722656 80.445312 300.964844 C 78.308594 299.210938 76.214844 297.402344 74.164062 295.542969 C 72.113281 293.683594 70.113281 291.777344 68.15625 289.820312 C 66.203125 287.863281 64.296875 285.859375 62.4375 283.808594 C 60.582031 281.757812 58.773438 279.660156 57.019531 277.519531 C 55.265625 275.382812 53.566406 273.199219 51.917969 270.976562 C 50.269531 268.753906 48.679688 266.492188 47.140625 264.1875 C 45.605469 261.886719 44.125 259.550781 42.703125 257.175781 C 41.28125 254.800781 39.917969 252.394531 38.617188 249.953125 C 37.3125 247.511719 36.070312 245.039062 34.886719 242.539062 C 33.703125 240.035156 32.582031 237.503906 31.523438 234.949219 C 30.46875 232.390625 29.472656 229.808594 28.539062 227.203125 C 27.609375 224.597656 26.742188 221.96875 25.9375 219.320312 C 25.136719 216.671875 24.398438 214.003906 23.726562 211.320312 C 23.054688 208.632812 22.449219 205.933594 21.910156 203.21875 C 21.371094 200.503906 20.898438 197.777344 20.492188 195.039062 C 20.085938 192.300781 19.746094 189.554688 19.476562 186.800781 C 19.203125 184.046875 19 181.285156 18.867188 178.523438 C 18.730469 175.757812 18.660156 172.992188 18.660156 170.222656 C 18.660156 167.457031 18.730469 164.6875 18.867188 161.925781 C 19 159.160156 19.203125 156.398438 19.476562 153.644531 C 19.746094 150.890625 20.085938 148.144531 20.492188 145.40625 C 20.898438 142.667969 21.371094 139.941406 21.910156 137.226562 C 22.449219 134.511719 23.054688 131.8125 23.726562 129.125 C 24.398438 126.441406 25.136719 123.773438 25.9375 121.125 C 26.742188 118.476562 27.609375 115.851562 28.539062 113.242188 C 29.472656 110.636719 30.46875 108.054688 31.523438 105.5 C 32.582031 102.941406 33.703125 100.410156 34.886719 97.910156 C 36.070312 95.40625 37.3125 92.933594 38.617188 90.492188 C 39.917969 88.050781 41.28125 85.644531 42.703125 83.269531 C 44.125 80.894531 45.605469 78.558594 47.140625 76.257812 C 48.679688 73.957031 50.269531 71.691406 51.917969 69.46875 C 53.566406 67.246094 55.265625 65.066406 57.019531 62.925781 C 58.773438 60.785156 60.582031 58.691406 62.4375 56.640625 C 64.296875 54.589844 66.203125 52.585938 68.15625 50.625 C 70.113281 48.667969 72.113281 46.761719 74.164062 44.902344 C 76.214844 43.042969 78.308594 41.238281 80.445312 39.480469 C 82.582031 37.722656 84.761719 36.023438 86.984375 34.371094 C 89.203125 32.722656 91.464844 31.128906 93.765625 29.59375 C 96.066406 28.054688 98.398438 26.574219 100.773438 25.152344 C 103.144531 23.730469 105.550781 22.363281 107.988281 21.058594 C 110.429688 19.753906 112.898438 18.511719 115.398438 17.328125 C 117.898438 16.144531 120.425781 15.023438 122.980469 13.964844 C 125.535156 12.902344 128.117188 11.90625 130.71875 10.976562 C 133.324219 10.042969 135.949219 9.175781 138.59375 8.371094 C 141.242188 7.566406 143.90625 6.828125 146.589844 6.15625 C 149.273438 5.484375 151.96875 4.878906 154.683594 4.339844 C 157.394531 3.796875 160.117188 3.324219 162.855469 2.917969 C 165.589844 2.511719 168.332031 2.175781 171.085938 1.902344 C 173.839844 1.632812 176.59375 1.429688 179.359375 1.292969 C 182.121094 1.15625 184.882812 1.089844 187.648438 1.089844 C 190.414062 1.089844 193.179688 1.15625 195.941406 1.292969 C 198.703125 1.429688 201.460938 1.632812 204.214844 1.902344 C 206.964844 2.175781 209.710938 2.511719 212.445312 2.917969 C 215.179688 3.324219 217.90625 3.796875 220.617188 4.339844 C 223.328125 4.878906 226.027344 5.484375 228.710938 6.15625 C 231.394531 6.828125 234.058594 7.566406 236.703125 8.371094 C 239.351562 9.175781 241.976562 10.042969 244.578125 10.976562 C 247.183594 11.90625 249.761719 12.902344 252.320312 13.964844 C 254.875 15.023438 257.402344 16.144531 259.902344 17.328125 C 262.402344 18.511719 264.871094 19.753906 267.308594 21.058594 C 269.75 22.363281 272.15625 23.730469 274.527344 25.152344 C 276.898438 26.574219 279.234375 28.054688 281.535156 29.59375 C 283.832031 31.128906 286.09375 32.722656 288.316406 34.371094 C 290.535156 36.023438 292.714844 37.722656 294.855469 39.480469 C 296.992188 41.238281 299.085938 43.042969 301.136719 44.902344 C 303.183594 46.761719 305.1875 48.667969 307.140625 50.625 C 309.097656 52.585938 311.003906 54.589844 312.863281 56.640625 C 314.71875 58.691406 316.523438 60.785156 318.277344 62.925781 C 320.035156 65.066406 321.734375 67.246094 323.382812 69.46875 C 325.03125 71.691406 326.621094 73.957031 328.15625 76.257812 C 329.695312 78.558594 331.171875 80.894531 332.59375 83.269531 C 334.015625 85.644531 335.378906 88.050781 336.683594 90.492188 C 337.988281 92.933594 339.230469 95.40625 340.414062 97.910156 C 341.59375 100.410156 342.714844 102.941406 343.773438 105.5 C 344.832031 108.054688 345.828125 110.636719 346.757812 113.242188 C 347.691406 115.851562 348.558594 118.476562 349.359375 121.125 C 350.164062 123.773438 350.902344 126.441406 351.574219 129.125 C 352.246094 131.8125 352.851562 134.511719 353.390625 137.226562 C 353.929688 139.941406 354.402344 142.667969 354.808594 145.40625 C 355.214844 148.144531 355.550781 150.890625 355.824219 153.644531 C 356.09375 156.398438 356.296875 159.160156 356.433594 161.925781 C 356.570312 164.6875 356.636719 167.457031 356.636719 170.222656 Z M 356.636719 170.222656 " fill-opacity="1" fill-rule="nonzero"/><path fill="#ffffff" d="M 329.105469 170.222656 C 329.105469 172.539062 329.050781 174.855469 328.9375 177.171875 C 328.824219 179.484375 328.652344 181.792969 328.425781 184.101562 C 328.199219 186.40625 327.914062 188.707031 327.578125 190.996094 C 327.238281 193.289062 326.839844 195.570312 326.390625 197.84375 C 325.9375 200.117188 325.429688 202.375 324.867188 204.625 C 324.304688 206.871094 323.6875 209.105469 323.015625 211.320312 C 322.34375 213.539062 321.617188 215.738281 320.839844 217.921875 C 320.058594 220.101562 319.226562 222.261719 318.339844 224.402344 C 317.453125 226.542969 316.515625 228.660156 315.527344 230.757812 C 314.535156 232.851562 313.496094 234.921875 312.402344 236.964844 C 311.3125 239.007812 310.171875 241.023438 308.980469 243.011719 C 307.792969 244.996094 306.554688 246.953125 305.265625 248.882812 C 303.980469 250.808594 302.648438 252.703125 301.269531 254.5625 C 299.890625 256.421875 298.464844 258.25 296.996094 260.039062 C 295.527344 261.832031 294.015625 263.585938 292.460938 265.304688 C 290.90625 267.019531 289.3125 268.695312 287.675781 270.335938 C 286.039062 271.972656 284.363281 273.570312 282.648438 275.128906 C 280.929688 276.683594 279.179688 278.195312 277.390625 279.667969 C 275.601562 281.136719 273.773438 282.5625 271.914062 283.941406 C 270.054688 285.320312 268.164062 286.65625 266.238281 287.941406 C 264.3125 289.230469 262.359375 290.46875 260.375 291.660156 C 258.386719 292.851562 256.375 293.992188 254.332031 295.085938 C 252.289062 296.179688 250.222656 297.21875 248.128906 298.210938 C 246.039062 299.199219 243.921875 300.140625 241.78125 301.027344 C 239.644531 301.914062 237.484375 302.746094 235.304688 303.527344 C 233.125 304.308594 230.929688 305.035156 228.710938 305.707031 C 226.496094 306.378906 224.265625 306.996094 222.019531 307.5625 C 219.773438 308.125 217.515625 308.632812 215.246094 309.082031 C 212.976562 309.535156 210.695312 309.929688 208.40625 310.269531 C 206.117188 310.609375 203.820312 310.894531 201.515625 311.121094 C 199.210938 311.347656 196.902344 311.519531 194.589844 311.632812 C 192.277344 311.746094 189.964844 311.804688 187.648438 311.804688 C 185.335938 311.804688 183.019531 311.746094 180.707031 311.632812 C 178.394531 311.519531 176.089844 311.347656 173.785156 311.121094 C 171.480469 310.894531 169.183594 310.609375 166.894531 310.269531 C 164.601562 309.929688 162.324219 309.535156 160.050781 309.082031 C 157.78125 308.632812 155.523438 308.125 153.277344 307.5625 C 151.03125 306.996094 148.800781 306.378906 146.585938 305.707031 C 144.371094 305.035156 142.171875 304.308594 139.992188 303.527344 C 137.8125 302.746094 135.65625 301.914062 133.515625 301.027344 C 131.378906 300.140625 129.261719 299.199219 127.167969 298.210938 C 125.074219 297.21875 123.007812 296.179688 120.96875 295.085938 C 118.925781 293.992188 116.910156 292.851562 114.925781 291.660156 C 112.941406 290.46875 110.984375 289.230469 109.058594 287.941406 C 107.136719 286.65625 105.242188 285.320312 103.382812 283.941406 C 101.523438 282.5625 99.699219 281.136719 97.910156 279.667969 C 96.121094 278.195312 94.367188 276.683594 92.652344 275.128906 C 90.9375 273.570312 89.261719 271.972656 87.625 270.335938 C 85.988281 268.695312 84.390625 267.019531 82.835938 265.304688 C 81.28125 263.585938 79.769531 261.832031 78.300781 260.039062 C 76.832031 258.25 75.410156 256.421875 74.03125 254.5625 C 72.652344 252.703125 71.316406 250.808594 70.03125 248.882812 C 68.746094 246.953125 67.507812 244.996094 66.316406 243.011719 C 65.128906 241.023438 63.988281 239.007812 62.894531 236.964844 C 61.804688 234.921875 60.761719 232.851562 59.773438 230.757812 C 58.785156 228.660156 57.84375 226.542969 56.960938 224.402344 C 56.074219 222.261719 55.242188 220.101562 54.460938 217.921875 C 53.679688 215.738281 52.957031 213.539062 52.28125 211.320312 C 51.609375 209.105469 50.992188 206.871094 50.429688 204.625 C 49.867188 202.375 49.363281 200.117188 48.910156 197.84375 C 48.457031 195.570312 48.0625 193.289062 47.722656 190.996094 C 47.382812 188.707031 47.101562 186.40625 46.875 184.101562 C 46.644531 181.792969 46.476562 179.484375 46.363281 177.171875 C 46.25 174.855469 46.191406 172.539062 46.191406 170.222656 C 46.191406 167.90625 46.25 165.589844 46.363281 163.277344 C 46.476562 160.960938 46.644531 158.652344 46.875 156.347656 C 47.101562 154.039062 47.382812 151.742188 47.722656 149.449219 C 48.0625 147.15625 48.457031 144.875 48.910156 142.601562 C 49.363281 140.328125 49.867188 138.070312 50.429688 135.820312 C 50.992188 133.574219 51.609375 131.339844 52.28125 129.125 C 52.957031 126.90625 53.679688 124.707031 54.460938 122.527344 C 55.242188 120.34375 56.074219 118.183594 56.960938 116.042969 C 57.84375 113.902344 58.785156 111.785156 59.773438 109.691406 C 60.761719 107.59375 61.804688 105.527344 62.894531 103.484375 C 63.988281 101.4375 65.128906 99.421875 66.316406 97.4375 C 67.507812 95.449219 68.746094 93.492188 70.03125 91.566406 C 71.316406 89.636719 72.652344 87.746094 74.03125 85.882812 C 75.410156 84.023438 76.832031 82.195312 78.300781 80.40625 C 79.769531 78.613281 81.28125 76.859375 82.835938 75.144531 C 84.390625 73.425781 85.988281 71.75 87.625 70.109375 C 89.261719 68.472656 90.9375 66.875 92.652344 65.320312 C 94.367188 63.761719 96.121094 62.25 97.910156 60.78125 C 99.699219 59.308594 101.523438 57.886719 103.382812 56.503906 C 105.242188 55.125 107.136719 53.789062 109.058594 52.503906 C 110.984375 51.214844 112.941406 49.976562 114.925781 48.785156 C 116.910156 47.59375 118.925781 46.453125 120.96875 45.359375 C 123.007812 44.269531 125.074219 43.226562 127.167969 42.234375 C 129.261719 41.246094 131.378906 40.304688 133.515625 39.417969 C 135.65625 38.53125 137.8125 37.699219 139.992188 36.917969 C 142.171875 36.136719 144.371094 35.410156 146.585938 34.738281 C 148.800781 34.066406 151.03125 33.449219 153.277344 32.886719 C 155.523438 32.324219 157.78125 31.816406 160.050781 31.363281 C 162.324219 30.910156 164.601562 30.515625 166.894531 30.175781 C 169.183594 29.835938 171.480469 29.550781 173.785156 29.324219 C 176.089844 29.097656 178.394531 28.925781 180.707031 28.8125 C 183.019531 28.699219 185.335938 28.644531 187.648438 28.644531 C 189.964844 28.644531 192.277344 28.699219 194.589844 28.8125 C 196.902344 28.925781 199.210938 29.097656 201.515625 29.324219 C 203.820312 29.550781 206.117188 29.835938 208.40625 30.175781 C 210.695312 30.515625 212.976562 30.910156 215.246094 31.363281 C 217.515625 31.816406 219.773438 32.324219 222.019531 32.886719 C 224.265625 33.449219 226.496094 34.066406 228.710938 34.738281 C 230.929688 35.410156 233.125 36.136719 235.304688 36.917969 C 237.484375 37.699219 239.644531 38.53125 241.78125 39.417969 C 243.921875 40.304688 246.039062 41.246094 248.128906 42.234375 C 250.222656 43.226562 252.289062 44.269531 254.332031 45.359375 C 256.375 46.453125 258.386719 47.59375 260.375 48.785156 C 262.359375 49.976562 264.3125 51.214844 266.238281 52.503906 C 268.164062 53.789062 270.054688 55.125 271.914062 56.503906 C 273.773438 57.886719 275.601562 59.308594 277.390625 60.78125 C 279.179688 62.25 280.929688 63.761719 282.648438 65.320312 C 284.363281 66.875 286.039062 68.472656 287.675781 70.109375 C 289.3125 71.75 290.90625 73.425781 292.460938 75.144531 C 294.015625 76.859375 295.527344 78.613281 296.996094 80.40625 C 298.464844 82.195312 299.890625 84.023438 301.269531 85.882812 C 302.648438 87.746094 303.980469 89.636719 305.265625 91.566406 C 306.554688 93.492188 307.792969 95.449219 308.980469 97.4375 C 310.171875 99.421875 311.3125 101.4375 312.402344 103.484375 C 313.496094 105.527344 314.535156 107.59375 315.527344 109.691406 C 316.515625 111.785156 317.453125 113.902344 318.339844 116.042969 C 319.226562 118.183594 320.058594 120.34375 320.839844 122.527344 C 321.617188 124.707031 322.34375 126.90625 323.015625 129.125 C 323.6875 131.339844 324.304688 133.574219 324.867188 135.820312 C 325.429688 138.070312 325.9375 140.328125 326.390625 142.601562 C 326.839844 144.875 327.238281 147.15625 327.578125 149.449219 C 327.914062 151.742188 328.199219 154.039062 328.425781 156.347656 C 328.652344 158.652344 328.824219 160.960938 328.9375 163.277344 C 329.050781 165.589844 329.105469 167.90625 329.105469 170.222656 Z M 329.105469 170.222656 " fill-opacity="1" fill-rule="nonzero"/><g clip-path="url(#id1)"><path fill="#37363b" d="M 287.4375 32.519531 C 263.511719 15.105469 234.757812 3.742188 203.625 0.816406 C 195.058594 0 187.648438 6.734375 187.648438 15.375 C 187.648438 22.929688 193.359375 29.1875 200.835938 29.867188 C 226.667969 32.25 250.390625 41.707031 270.242188 56.195312 C 305.316406 81.777344 328.085938 123.144531 328.085938 169.882812 C 328.085938 174.441406 327.882812 179 327.40625 183.421875 C 320.542969 255.265625 259.636719 311.394531 185.8125 310.511719 C 111.3125 309.625 49.726562 249.414062 47.210938 174.714844 C 45.714844 130.761719 64.476562 91.097656 94.792969 64.359375 C 100.4375 59.394531 101.320312 50.957031 96.902344 44.902344 C 91.871094 37.894531 81.878906 36.808594 75.421875 42.523438 C 39.734375 74.089844 17.371094 120.355469 17.980469 171.925781 C 19 261.320312 90.375 335.410156 179.628906 339.492188 C 272.347656 343.78125 349.566406 273.433594 356.707031 183.421875 C 357.046875 178.929688 357.316406 174.441406 357.316406 169.882812 C 357.316406 113.414062 329.785156 63.410156 287.4375 32.519531 Z M 287.4375 32.519531 " fill-opacity="1" fill-rule="nonzero"/></g><path fill="#ffffff" d="M 111.992188 141.242188 C 111.992188 138.996094 112.265625 133.621094 114.78125 128.789062 C 117.292969 124.09375 121.847656 119.945312 130.820312 119.945312 C 139.523438 119.945312 144.347656 124.09375 146.863281 128.789062 C 149.378906 133.621094 149.652344 138.996094 149.652344 141.242188 L 149.652344 197.234375 C 149.652344 200.839844 149.515625 206.621094 147 211.453125 C 144.484375 216.417969 139.929688 220.570312 130.820312 220.570312 C 121.714844 220.570312 117.160156 216.417969 114.644531 211.453125 C 112.128906 206.621094 111.992188 200.90625 111.992188 197.234375 L 111.992188 191.042969 L 126.472656 191.042969 C 126.472656 197.574219 126.605469 201.859375 127.152344 204.445312 C 127.695312 206.960938 128.78125 207.914062 130.890625 207.914062 C 132.65625 207.914062 133.8125 207.097656 134.492188 205.398438 C 135.035156 203.628906 135.308594 200.976562 135.308594 197.234375 L 135.308594 178.726562 C 132.792969 180.222656 130.617188 181.109375 128.101562 181.109375 C 120.625 181.109375 116.613281 177.230469 114.441406 172.808594 C 112.332031 168.386719 112.058594 163.011719 112.058594 160.359375 L 112.058594 141.242188 Z M 135.308594 136.953125 C 135.308594 135.730469 134.21875 132.53125 130.890625 132.53125 C 127.832031 132.53125 126.472656 135.730469 126.472656 136.953125 L 126.472656 165.460938 C 126.472656 166.683594 127.832031 169.882812 130.890625 169.882812 C 133.949219 169.882812 135.171875 167.367188 135.308594 165.867188 Z M 135.308594 136.953125 " fill-opacity="1" fill-rule="nonzero"/><path fill="#ffffff" d="M 196.960938 199.207031 C 196.828125 203.21875 196.011719 206.824219 194.582031 209.886719 C 193.359375 212.539062 191.523438 215.125 188.804688 217.097656 C 186.152344 219.207031 182.484375 220.433594 177.726562 220.433594 C 172.898438 220.433594 169.160156 219.207031 166.507812 217.097656 C 163.859375 215.058594 162.089844 212.539062 160.867188 209.886719 C 159.371094 206.824219 158.625 203.21875 158.488281 199.207031 L 158.488281 141.242188 C 158.625 137.363281 159.441406 133.757812 160.867188 130.695312 C 162.089844 128.042969 163.789062 125.320312 166.507812 123.347656 C 169.160156 121.304688 172.898438 120.011719 177.726562 120.011719 C 182.550781 120.011719 186.152344 121.375 188.804688 123.347656 C 191.457031 125.386719 193.359375 128.042969 194.582031 130.695312 C 196.078125 133.757812 196.828125 137.363281 196.960938 141.242188 Z M 182.484375 141.242188 C 182.484375 138.585938 181.941406 136.683594 180.582031 135.050781 C 179.898438 134.367188 178.8125 133.960938 177.65625 133.960938 C 175.140625 133.960938 173.917969 135.867188 173.375 137.566406 C 172.96875 138.65625 172.832031 139.8125 172.832031 141.171875 L 172.832031 199.136719 C 172.832031 201.925781 173.511719 203.832031 174.871094 205.328125 C 175.550781 206.007812 176.5 206.417969 177.65625 206.417969 C 180.171875 206.417969 181.394531 204.785156 181.941406 202.8125 C 182.347656 201.859375 182.484375 200.703125 182.484375 199.207031 Z M 182.484375 141.242188 " fill-opacity="1" fill-rule="nonzero"/><path fill="#ffffff" d="M 225.714844 159.882812 C 225.582031 164.304688 223.949219 167.367188 221.296875 169.679688 C 219.9375 170.902344 217.96875 171.449219 215.382812 171.449219 C 210.011719 171.449219 207.632812 168.792969 206.140625 165.664062 C 205.324219 164.03125 204.914062 162.195312 204.914062 159.882812 L 204.914062 131.375 C 204.914062 127.089844 206.546875 124.164062 209.332031 121.714844 C 210.695312 120.488281 212.664062 119.945312 215.382812 119.945312 C 220.617188 119.945312 222.859375 122.871094 224.355469 125.726562 C 225.171875 127.359375 225.582031 129.199219 225.714844 131.375 Z M 211.644531 219.414062 L 247.742188 120.964844 L 256.304688 120.964844 L 220.550781 219.414062 Z M 217.695312 131.308594 C 217.695312 130.082031 217.285156 129.0625 216.742188 128.246094 C 216.472656 127.835938 216.0625 127.703125 215.382812 127.703125 C 213.886719 127.703125 213.480469 128.652344 213.140625 129.605469 C 213.003906 130.152344 212.867188 130.695312 213.003906 131.375 L 213.003906 159.882812 C 212.867188 161.378906 213.140625 163.488281 215.382812 163.488281 C 217.421875 163.488281 217.625 161.378906 217.625 159.882812 L 217.625 131.308594 Z M 263.308594 209.140625 C 263.171875 213.5625 261.539062 216.488281 258.886719 218.800781 C 257.527344 220.023438 255.558594 220.570312 252.972656 220.570312 C 247.605469 220.570312 245.226562 217.78125 243.730469 214.921875 C 242.914062 213.289062 242.507812 211.453125 242.507812 209.140625 L 242.507812 180.632812 C 242.507812 176.347656 244.136719 173.285156 246.925781 170.835938 C 248.285156 169.609375 250.253906 169.066406 252.972656 169.066406 C 258.207031 169.066406 260.453125 171.992188 261.945312 174.847656 C 262.761719 176.617188 263.171875 178.457031 263.308594 180.632812 Z M 255.285156 180.632812 C 255.285156 179.40625 254.878906 178.386719 254.332031 177.570312 C 254.0625 177.164062 253.652344 177.027344 252.972656 177.027344 C 251.480469 177.027344 251.070312 177.980469 250.730469 178.929688 C 250.59375 179.476562 250.460938 180.019531 250.59375 180.699219 L 250.59375 209.207031 C 250.460938 210.703125 250.867188 211.453125 251.546875 212.269531 C 251.820312 212.675781 252.363281 212.949219 253.042969 212.949219 C 254.265625 212.949219 254.671875 211.996094 255.082031 211.042969 C 255.21875 210.5 255.355469 209.820312 255.355469 209.140625 L 255.355469 180.632812 Z M 255.285156 180.632812 " fill-opacity="1" fill-rule="nonzero"/><g clip-path="url(#id2)"><path stroke-linecap="butt" transform="matrix(0.549943, 0, 0, 0.5467, 72.491177, -11.426799)" fill="none" stroke-linejoin="miter" d="M 299.997642 198.786998 C 299.997642 199.723012 299.855582 200.659027 299.564358 201.587896 C 299.273135 202.52391 298.839851 203.445634 298.257404 204.367358 C 297.674957 205.281937 296.957552 206.18937 296.090984 207.082514 C 295.23152 207.982802 294.229995 208.861656 293.093512 209.726218 C 291.95703 210.590781 290.685591 211.433908 289.286297 212.2556 C 287.887003 213.084437 286.359855 213.884694 284.711956 214.663515 C 283.064056 215.442336 281.295406 216.192576 279.406004 216.914236 C 277.523705 217.635896 275.527758 218.328975 273.432369 218.993474 C 271.329877 219.657973 269.127943 220.279601 266.833669 220.872648 C 264.539395 221.47284 262.152783 222.023016 259.680934 222.544612 C 257.216188 223.066208 254.666206 223.544933 252.045193 223.987932 C 249.424181 224.430931 246.746345 224.831059 243.997478 225.188317 C 241.255715 225.545574 238.46423 225.85996 235.615922 226.131476 C 232.774716 226.402992 229.897995 226.631636 226.985759 226.810265 C 224.066421 226.996039 221.132876 227.131797 218.178022 227.224684 C 215.223168 227.31757 212.254108 227.360441 209.285048 227.360441 C 206.315988 227.360441 203.346928 227.31757 200.392074 227.224684 C 197.43722 227.131797 194.503676 226.996039 191.584337 226.810265 C 188.672101 226.631636 185.79538 226.402992 182.954175 226.131476 C 180.105866 225.85996 177.314381 225.545574 174.572618 225.188317 C 171.823751 224.831059 169.145915 224.430931 166.524903 223.987932 C 163.903891 223.544933 161.353908 223.066208 158.889162 222.544612 C 156.417314 222.023016 154.030701 221.47284 151.736427 220.872648 C 149.442154 220.279601 147.240219 219.657973 145.137727 218.993474 C 143.042338 218.328975 141.046391 217.635896 139.164092 216.914236 C 137.27469 216.192576 135.50604 215.442336 133.858141 214.663515 C 132.210241 213.884694 130.683093 213.084437 129.283799 212.2556 C 127.884506 211.433908 126.613066 210.590781 125.476584 209.726218 C 124.340102 208.861656 123.338577 207.982802 122.479112 207.082514 C 121.612544 206.18937 120.89514 205.281937 120.312692 204.367358 C 119.730245 203.445634 119.296961 202.52391 119.005738 201.587896 C 118.714514 200.659027 118.572454 199.723012 118.572454 198.786998 C 118.572454 197.850984 118.714514 196.922115 119.005738 195.9861 C 119.296961 195.057231 119.730245 194.135507 120.312692 193.213783 C 120.89514 192.299205 121.612544 191.391771 122.479112 190.498627 C 123.338577 189.598339 124.340102 188.719486 125.476584 187.854923 C 126.613066 186.99036 127.884506 186.147233 129.283799 185.318396 C 130.683093 184.496704 132.210241 183.696447 133.858141 182.917626 C 135.50604 182.138805 137.27469 181.388565 139.164092 180.666905 C 141.046391 179.9381 143.042338 179.252166 145.137727 178.587667 C 147.240219 177.923169 149.442154 177.294396 151.736427 176.701348 C 154.030701 176.108301 156.417314 175.55098 158.889162 175.036529 C 161.353908 174.514933 163.903891 174.036209 166.524903 173.593209 C 169.145915 173.15021 171.823751 172.750082 174.572618 172.392825 C 177.314381 172.035567 180.105866 171.721181 182.954175 171.449665 C 185.79538 171.17815 188.672101 170.949505 191.584337 170.770876 C 194.503676 170.585103 197.43722 170.449345 200.392074 170.356458 C 203.346928 170.263571 206.315988 170.2207 209.285048 170.2207 C 212.254108 170.2207 215.223168 170.263571 218.178022 170.356458 C 221.132876 170.449345 224.066421 170.585103 226.985759 170.770876 C 229.897995 170.949505 232.774716 171.17815 235.615922 171.449665 C 238.46423 171.721181 241.255715 172.035567 243.997478 172.392825 C 246.746345 172.750082 249.424181 173.15021 252.045193 173.593209 C 254.666206 174.036209 257.216188 174.514933 259.680934 175.036529 C 262.152783 175.55098 264.539395 176.108301 266.833669 176.701348 C 269.127943 177.294396 271.329877 177.923169 273.432369 178.587667 C 275.527758 179.252166 277.523705 179.9381 279.406004 180.666905 C 281.295406 181.388565 283.064056 182.138805 284.711956 182.917626 C 286.359855 183.696447 287.887003 184.496704 289.286297 185.318396 C 290.685591 186.147233 291.95703 186.99036 293.093512 187.854923 C 294.229995 188.719486 295.23152 189.598339 296.090984 190.498627 C 296.957552 191.391771 297.674957 192.299205 298.257404 193.213783 C 298.839851 194.135507 299.273135 195.057231 299.564358 195.9861 C 299.855582 196.922115 299.997642 197.850984 299.997642 198.786998 Z M 299.997642 198.786998 " stroke="#000000" stroke-width="11.059" stroke-opacity="1" stroke-miterlimit="4"/></g><g clip-path="url(#id3)"><path stroke-linecap="butt" transform="matrix(0.608169, 0, 0, 0.604582, 134.136968, 12.057604)" fill="none" stroke-linejoin="miter" d="M 5.857341 140.930524 L 5.857341 191.643473 C 5.857341 218.011105 67.286642 229.350285 67.286642 253.075339 L 67.286642 264.504974 " stroke="#000000" stroke-width="10" stroke-opacity="1" stroke-miterlimit="4"/></g><g clip-path="url(#id4)"><path stroke-linecap="butt" transform="matrix(0.608169, 0, 0, 0.604582, 134.136968, 12.057604)" fill="none" stroke-linejoin="miter" d="M 5.857341 388.008352 L 5.857341 337.295403 C 5.857341 310.934232 67.286642 299.588591 67.286642 275.869998 L 67.286642 264.440363 " stroke="#000000" stroke-width="10" stroke-opacity="1" stroke-miterlimit="4"/></g><g clip-path="url(#id5)"><path stroke-linecap="butt" transform="matrix(-0.608169, 0, 0, 0.604582, 241.039033, 12.057604)" fill="none" stroke-linejoin="miter" d="M 5.857701 140.930524 L 5.857701 191.643473 C 5.857701 218.011105 67.287002 229.350285 67.287002 253.075339 L 67.287002 264.504974 " stroke="#000000" stroke-width="10" stroke-opacity="1" stroke-miterlimit="4"/></g><g clip-path="url(#id6)"><path stroke-linecap="butt" transform="matrix(-0.608169, 0, 0, 0.604582, 241.039033, 12.057604)" fill="none" stroke-linejoin="miter" d="M 5.857701 388.008352 L 5.857701 337.295403 C 5.857701 310.934232 67.287002 299.588591 67.287002 275.869998 L 67.287002 264.440363 " stroke="#000000" stroke-width="10" stroke-opacity="1" stroke-miterlimit="4"/></g><g clip-path="url(#id7)"><path stroke-linecap="butt" transform="matrix(0.608169, 0, 0, 0.604582, 134.646, 14.156718)" fill="none" stroke-linejoin="miter" d="M 5.026771 384.148682 C 5.026771 384.148682 1.54552 410.160955 86.348015 410.160955 C 171.144087 410.160955 169.056622 384.148682 169.056622 384.148682 " stroke="#000000" stroke-width="10" stroke-opacity="1" stroke-miterlimit="4"/></g><path fill="#37363b" d="M 146.851562 126.917969 C 146.808594 127.003906 166.898438 138.246094 188.1875 137.925781 C 209.472656 137.605469 228.609375 126.277344 228.609375 126.277344 C 229.035156 126.277344 217.703125 138.027344 195.355469 152.738281 C 187.167969 165.808594 188.597656 180.0625 187.757812 180.140625 C 186.914062 180.21875 188.597656 164.613281 179.726562 151.820312 C 157.484375 136.792969 146.894531 126.832031 146.851562 126.917969 Z M 146.851562 126.917969 " fill-opacity="1" fill-rule="nonzero"/><path fill="#37363b" d="M 146.851562 244.792969 C 148.527344 245.992188 166.898438 250.777344 188.1875 251.097656 C 209.472656 251.417969 227.320312 247.25 228.609375 245.433594 C 229.894531 243.617188 211.929688 230.589844 201.503906 227.796875 C 193.351562 225.613281 188.355469 215.765625 186.894531 215.765625 C 185.433594 215.765625 178.742188 225.582031 170.78125 227.507812 C 161.203125 229.824219 145.175781 243.59375 146.851562 244.792969 Z M 146.851562 244.792969 " fill-opacity="1" fill-rule="nonzero"/></svg>