
<svg xmlns="http://www.w3.org/2000/svg" xmlns:xlink="http://www.w3.org/1999/xlink" width="25%" zoomAndPan="magnify" viewBox="0 0 375 374.999991" height="width" preserveAspectRatio="xMidYMid meet" version="1.0"><defs><clipPath id="id1"><path d="M 20 0 L 356.25 0 L 356.25 336 L 20 336 Z M 20 0 " clip-rule="nonzero"/></clipPath><clipPath id="id2"><path d="M 89.027344 223 L 286.464844 223 L 286.464844 260.371094 L 89.027344 260.371094 Z M 89.027344 223 " clip-rule="nonzero"/></clipPath><clipPath id="id3"><path d="M 101 76.433594 L 275 76.433594 L 275 208 L 101 208 Z M 101 76.433594 " clip-rule="nonzero"/></clipPath></defs><path fill="#ffffff" d="M 355.34375 167.945312 C 355.34375 170.683594 355.277344 173.417969 355.144531 176.152344 C 355.007812 178.886719 354.808594 181.617188 354.539062 184.339844 C 354.269531 187.066406 353.9375 189.78125 353.535156 192.488281 C 353.132812 195.199219 352.664062 197.894531 352.128906 200.578125 C 351.597656 203.265625 350.996094 205.933594 350.332031 208.589844 C 349.667969 211.246094 348.9375 213.882812 348.140625 216.503906 C 347.347656 219.121094 346.488281 221.722656 345.566406 224.296875 C 344.644531 226.875 343.660156 229.429688 342.613281 231.957031 C 341.5625 234.488281 340.453125 236.988281 339.285156 239.464844 C 338.113281 241.941406 336.882812 244.382812 335.59375 246.796875 C 334.300781 249.210938 332.953125 251.59375 331.546875 253.941406 C 330.140625 256.289062 328.675781 258.601562 327.152344 260.878906 C 325.632812 263.15625 324.058594 265.390625 322.425781 267.589844 C 320.796875 269.789062 319.113281 271.949219 317.375 274.0625 C 315.636719 276.179688 313.851562 278.253906 312.011719 280.28125 C 310.175781 282.308594 308.285156 284.289062 306.351562 286.226562 C 304.414062 288.164062 302.433594 290.050781 300.40625 291.886719 C 298.375 293.726562 296.304688 295.515625 294.1875 297.25 C 292.070312 298.988281 289.914062 300.671875 287.714844 302.300781 C 285.515625 303.933594 283.277344 305.507812 281.003906 307.03125 C 278.726562 308.550781 276.414062 310.015625 274.066406 311.421875 C 271.71875 312.828125 269.335938 314.179688 266.921875 315.46875 C 264.507812 316.757812 262.0625 317.988281 259.589844 319.160156 C 257.113281 320.332031 254.613281 321.441406 252.082031 322.488281 C 249.554688 323.535156 247 324.519531 244.421875 325.441406 C 241.84375 326.363281 239.246094 327.222656 236.628906 328.019531 C 234.007812 328.8125 231.371094 329.542969 228.714844 330.207031 C 226.058594 330.871094 223.386719 331.472656 220.703125 332.007812 C 218.019531 332.539062 215.320312 333.007812 212.613281 333.410156 C 209.90625 333.8125 207.191406 334.148438 204.464844 334.414062 C 201.742188 334.683594 199.011719 334.882812 196.277344 335.019531 C 193.542969 335.152344 190.808594 335.21875 188.070312 335.21875 C 185.332031 335.21875 182.597656 335.152344 179.863281 335.019531 C 177.128906 334.882812 174.398438 334.683594 171.675781 334.414062 C 168.949219 334.148438 166.234375 333.8125 163.527344 333.410156 C 160.816406 333.007812 158.121094 332.539062 155.4375 332.007812 C 152.75 331.472656 150.082031 330.871094 147.425781 330.207031 C 144.769531 329.542969 142.132812 328.8125 139.511719 328.019531 C 136.894531 327.222656 134.292969 326.363281 131.714844 325.441406 C 129.140625 324.519531 126.585938 323.535156 124.054688 322.488281 C 121.527344 321.441406 119.023438 320.332031 116.550781 319.160156 C 114.074219 317.988281 111.632812 316.757812 109.21875 315.46875 C 106.800781 314.179688 104.421875 312.828125 102.074219 311.421875 C 99.726562 310.015625 97.414062 308.550781 95.136719 307.03125 C 92.859375 305.507812 90.625 303.933594 88.425781 302.300781 C 86.226562 300.671875 84.066406 298.988281 81.953125 297.25 C 79.835938 295.515625 77.761719 293.726562 75.734375 291.886719 C 73.707031 290.050781 71.722656 288.164062 69.789062 286.226562 C 67.851562 284.289062 65.964844 282.308594 64.128906 280.28125 C 62.289062 278.253906 60.5 276.179688 58.765625 274.0625 C 57.027344 271.949219 55.34375 269.789062 53.714844 267.589844 C 52.082031 265.390625 50.507812 263.15625 48.984375 260.878906 C 47.464844 258.601562 46 256.289062 44.59375 253.941406 C 43.1875 251.59375 41.835938 249.210938 40.546875 246.796875 C 39.257812 244.382812 38.027344 241.941406 36.855469 239.464844 C 35.683594 236.988281 34.574219 234.488281 33.527344 231.957031 C 32.480469 229.429688 31.496094 226.875 30.574219 224.296875 C 29.652344 221.722656 28.792969 219.121094 27.996094 216.503906 C 27.203125 213.882812 26.472656 211.246094 25.808594 208.589844 C 25.144531 205.933594 24.542969 203.265625 24.007812 200.578125 C 23.476562 197.894531 23.007812 195.199219 22.605469 192.488281 C 22.203125 189.78125 21.867188 187.066406 21.601562 184.339844 C 21.332031 181.617188 21.128906 178.886719 20.996094 176.152344 C 20.863281 173.417969 20.792969 170.683594 20.792969 167.945312 C 20.792969 165.207031 20.863281 162.472656 20.996094 159.738281 C 21.128906 157.003906 21.332031 154.273438 21.601562 151.550781 C 21.867188 148.824219 22.203125 146.109375 22.605469 143.402344 C 23.007812 140.691406 23.476562 137.996094 24.007812 135.3125 C 24.542969 132.625 25.144531 129.957031 25.808594 127.300781 C 26.472656 124.644531 27.203125 122.007812 27.996094 119.386719 C 28.792969 116.769531 29.652344 114.167969 30.574219 111.59375 C 31.496094 109.015625 32.480469 106.460938 33.527344 103.933594 C 34.574219 101.402344 35.683594 98.902344 36.855469 96.425781 C 38.027344 93.953125 39.257812 91.507812 40.546875 89.09375 C 41.835938 86.679688 43.1875 84.296875 44.59375 81.949219 C 46 79.601562 47.464844 77.289062 48.984375 75.011719 C 50.507812 72.734375 52.082031 70.5 53.714844 68.300781 C 55.34375 66.101562 57.027344 63.945312 58.765625 61.828125 C 60.5 59.710938 62.289062 57.640625 64.128906 55.609375 C 65.964844 53.582031 67.851562 51.601562 69.789062 49.664062 C 71.722656 47.726562 73.707031 45.839844 75.734375 44.003906 C 77.761719 42.164062 79.835938 40.375 81.953125 38.640625 C 84.066406 36.902344 86.226562 35.21875 88.425781 33.589844 C 90.625 31.957031 92.859375 30.382812 95.136719 28.863281 C 97.414062 27.339844 99.726562 25.875 102.074219 24.46875 C 104.421875 23.0625 106.800781 21.710938 109.21875 20.421875 C 111.632812 19.132812 114.074219 17.902344 116.550781 16.730469 C 119.023438 15.558594 121.527344 14.449219 124.054688 13.402344 C 126.585938 12.355469 129.140625 11.371094 131.714844 10.449219 C 134.292969 9.527344 136.894531 8.667969 139.511719 7.875 C 142.132812 7.078125 144.769531 6.347656 147.425781 5.683594 C 150.082031 5.019531 152.75 4.417969 155.4375 3.882812 C 158.121094 3.351562 160.816406 2.882812 163.527344 2.480469 C 166.234375 2.078125 168.949219 1.746094 171.675781 1.476562 C 174.398438 1.207031 177.128906 1.007812 179.863281 0.871094 C 182.597656 0.738281 185.332031 0.671875 188.070312 0.671875 C 190.808594 0.671875 193.542969 0.738281 196.277344 0.871094 C 199.011719 1.007812 201.742188 1.207031 204.464844 1.476562 C 207.191406 1.746094 209.90625 2.078125 212.613281 2.480469 C 215.320312 2.882812 218.019531 3.351562 220.703125 3.882812 C 223.386719 4.417969 226.058594 5.019531 228.714844 5.683594 C 231.371094 6.347656 234.007812 7.078125 236.628906 7.875 C 239.246094 8.667969 241.84375 9.527344 244.421875 10.449219 C 247 11.371094 249.554688 12.355469 252.082031 13.402344 C 254.613281 14.449219 257.113281 15.558594 259.589844 16.730469 C 262.0625 17.902344 264.507812 19.132812 266.921875 20.421875 C 269.335938 21.710938 271.71875 23.0625 274.066406 24.46875 C 276.414062 25.875 278.726562 27.339844 281.003906 28.863281 C 283.277344 30.382812 285.515625 31.957031 287.714844 33.589844 C 289.914062 35.21875 292.070312 36.902344 294.1875 38.640625 C 296.304688 40.375 298.375 42.164062 300.40625 44.003906 C 302.433594 45.839844 304.414062 47.726562 306.351562 49.664062 C 308.285156 51.601562 310.175781 53.582031 312.011719 55.609375 C 313.851562 57.640625 315.636719 59.710938 317.375 61.828125 C 319.113281 63.945312 320.796875 66.101562 322.425781 68.300781 C 324.058594 70.5 325.632812 72.734375 327.152344 75.011719 C 328.675781 77.289062 330.140625 79.601562 331.546875 81.949219 C 332.953125 84.296875 334.300781 86.679688 335.59375 89.09375 C 336.882812 91.507812 338.113281 93.953125 339.285156 96.425781 C 340.453125 98.902344 341.5625 101.402344 342.613281 103.933594 C 343.660156 106.460938 344.644531 109.015625 345.566406 111.59375 C 346.488281 114.167969 347.347656 116.769531 348.140625 119.386719 C 348.9375 122.007812 349.667969 124.644531 350.332031 127.300781 C 350.996094 129.957031 351.597656 132.625 352.128906 135.3125 C 352.664062 137.996094 353.132812 140.691406 353.535156 143.402344 C 353.9375 146.109375 354.269531 148.824219 354.539062 151.550781 C 354.808594 154.273438 355.007812 157.003906 355.144531 159.738281 C 355.277344 162.472656 355.34375 165.207031 355.34375 167.945312 Z M 355.34375 167.945312 " fill-opacity="1" fill-rule="nonzero"/><path fill="#ffffff" d="M 328.058594 167.945312 C 328.058594 170.238281 328 172.527344 327.890625 174.8125 C 327.777344 177.101562 327.609375 179.386719 327.382812 181.667969 C 327.160156 183.945312 326.878906 186.21875 326.542969 188.484375 C 326.207031 190.753906 325.816406 193.007812 325.367188 195.253906 C 324.921875 197.503906 324.417969 199.738281 323.863281 201.960938 C 323.304688 204.183594 322.695312 206.390625 322.03125 208.582031 C 321.363281 210.773438 320.648438 212.949219 319.875 215.105469 C 319.101562 217.261719 318.277344 219.398438 317.402344 221.515625 C 316.523438 223.632812 315.597656 225.726562 314.617188 227.796875 C 313.636719 229.867188 312.609375 231.914062 311.527344 233.933594 C 310.449219 235.957031 309.320312 237.949219 308.140625 239.914062 C 306.964844 241.878906 305.738281 243.8125 304.464844 245.71875 C 303.191406 247.625 301.875 249.496094 300.507812 251.335938 C 299.144531 253.175781 297.734375 254.980469 296.28125 256.753906 C 294.828125 258.523438 293.332031 260.257812 291.792969 261.957031 C 290.253906 263.652344 288.675781 265.3125 287.054688 266.933594 C 285.4375 268.550781 283.777344 270.132812 282.082031 271.667969 C 280.382812 273.207031 278.648438 274.703125 276.878906 276.15625 C 275.105469 277.609375 273.300781 279.019531 271.460938 280.386719 C 269.621094 281.75 267.746094 283.070312 265.84375 284.339844 C 263.9375 285.613281 262.003906 286.839844 260.039062 288.015625 C 258.074219 289.195312 256.082031 290.324219 254.058594 291.402344 C 252.039062 292.484375 249.992188 293.511719 247.921875 294.492188 C 245.851562 295.472656 243.757812 296.402344 241.640625 297.277344 C 239.523438 298.152344 237.386719 298.980469 235.230469 299.75 C 233.074219 300.523438 230.898438 301.242188 228.707031 301.90625 C 226.515625 302.570312 224.304688 303.179688 222.085938 303.738281 C 219.863281 304.292969 217.628906 304.796875 215.378906 305.242188 C 213.132812 305.691406 210.875 306.082031 208.609375 306.417969 C 206.34375 306.753906 204.070312 307.035156 201.792969 307.257812 C 199.511719 307.484375 197.226562 307.652344 194.9375 307.765625 C 192.652344 307.878906 190.359375 307.933594 188.070312 307.933594 C 185.777344 307.933594 183.488281 307.878906 181.199219 307.765625 C 178.914062 307.652344 176.628906 307.484375 174.347656 307.257812 C 172.070312 307.035156 169.796875 306.753906 167.53125 306.417969 C 165.261719 306.082031 163.007812 305.691406 160.757812 305.242188 C 158.511719 304.796875 156.277344 304.292969 154.054688 303.738281 C 151.832031 303.179688 149.625 302.570312 147.433594 301.90625 C 145.242188 301.242188 143.066406 300.523438 140.910156 299.75 C 138.753906 298.980469 136.617188 298.152344 134.5 297.277344 C 132.382812 296.402344 130.289062 295.472656 128.21875 294.492188 C 126.144531 293.511719 124.101562 292.484375 122.078125 291.402344 C 120.058594 290.324219 118.066406 289.195312 116.101562 288.015625 C 114.136719 286.839844 112.203125 285.613281 110.296875 284.339844 C 108.390625 283.070312 106.519531 281.75 104.679688 280.386719 C 102.839844 279.019531 101.035156 277.609375 99.261719 276.15625 C 97.492188 274.703125 95.757812 273.207031 94.058594 271.667969 C 92.363281 270.132812 90.703125 268.550781 89.082031 266.933594 C 87.464844 265.3125 85.882812 263.652344 84.34375 261.957031 C 82.808594 260.257812 81.3125 258.523438 79.859375 256.753906 C 78.402344 254.980469 76.996094 253.175781 75.628906 251.335938 C 74.265625 249.496094 72.945312 247.625 71.675781 245.71875 C 70.402344 243.8125 69.175781 241.878906 68 239.914062 C 66.820312 237.949219 65.691406 235.957031 64.613281 233.933594 C 63.53125 231.914062 62.5 229.867188 61.523438 227.796875 C 60.542969 225.726562 59.613281 223.632812 58.738281 221.515625 C 57.859375 219.398438 57.035156 217.261719 56.265625 215.105469 C 55.492188 212.949219 54.773438 210.773438 54.109375 208.582031 C 53.445312 206.390625 52.832031 204.183594 52.277344 201.960938 C 51.71875 199.738281 51.21875 197.503906 50.773438 195.253906 C 50.324219 193.007812 49.933594 190.753906 49.597656 188.484375 C 49.261719 186.21875 48.980469 183.945312 48.757812 181.667969 C 48.53125 179.386719 48.363281 177.101562 48.25 174.8125 C 48.136719 172.527344 48.082031 170.238281 48.082031 167.945312 C 48.082031 165.65625 48.136719 163.363281 48.25 161.078125 C 48.363281 158.789062 48.53125 156.503906 48.757812 154.222656 C 48.980469 151.945312 49.261719 149.671875 49.597656 147.40625 C 49.933594 145.140625 50.324219 142.882812 50.773438 140.636719 C 51.21875 138.386719 51.71875 136.152344 52.277344 133.929688 C 52.832031 131.707031 53.445312 129.5 54.109375 127.308594 C 54.773438 125.117188 55.492188 122.941406 56.265625 120.785156 C 57.035156 118.628906 57.859375 116.492188 58.738281 114.375 C 59.613281 112.257812 60.542969 110.164062 61.523438 108.09375 C 62.5 106.023438 63.53125 103.976562 64.613281 101.957031 C 65.691406 99.933594 66.820312 97.941406 68 95.976562 C 69.175781 94.011719 70.402344 92.078125 71.675781 90.171875 C 72.945312 88.265625 74.265625 86.394531 75.628906 84.554688 C 76.996094 82.714844 78.402344 80.910156 79.859375 79.136719 C 81.3125 77.367188 82.808594 75.632812 84.34375 73.933594 C 85.882812 72.238281 87.464844 70.578125 89.082031 68.957031 C 90.703125 67.339844 92.363281 65.757812 94.058594 64.222656 C 95.757812 62.683594 97.492188 61.1875 99.261719 59.734375 C 101.035156 58.28125 102.839844 56.871094 104.679688 55.507812 C 106.519531 54.140625 108.390625 52.824219 110.296875 51.550781 C 112.203125 50.277344 114.136719 49.050781 116.101562 47.875 C 118.066406 46.695312 120.058594 45.566406 122.078125 44.488281 C 124.101562 43.40625 126.144531 42.378906 128.21875 41.398438 C 130.289062 40.417969 132.382812 39.488281 134.5 38.613281 C 136.617188 37.738281 138.753906 36.914062 140.910156 36.140625 C 143.066406 35.367188 145.242188 34.648438 147.433594 33.984375 C 149.625 33.320312 151.832031 32.710938 154.054688 32.152344 C 156.277344 31.597656 158.511719 31.09375 160.757812 30.648438 C 163.007812 30.199219 165.261719 29.808594 167.53125 29.472656 C 169.796875 29.136719 172.070312 28.855469 174.347656 28.632812 C 176.628906 28.40625 178.914062 28.238281 181.199219 28.125 C 183.488281 28.011719 185.777344 27.957031 188.070312 27.957031 C 190.359375 27.957031 192.652344 28.011719 194.9375 28.125 C 197.226562 28.238281 199.511719 28.40625 201.792969 28.632812 C 204.070312 28.855469 206.34375 29.136719 208.609375 29.472656 C 210.875 29.808594 213.132812 30.199219 215.378906 30.648438 C 217.628906 31.09375 219.863281 31.597656 222.085938 32.152344 C 224.304688 32.710938 226.515625 33.320312 228.707031 33.984375 C 230.898438 34.648438 233.074219 35.367188 235.230469 36.140625 C 237.386719 36.914062 239.523438 37.738281 241.640625 38.613281 C 243.757812 39.488281 245.851562 40.417969 247.921875 41.398438 C 249.992188 42.378906 252.039062 43.40625 254.058594 44.488281 C 256.082031 45.566406 258.074219 46.695312 260.039062 47.875 C 262.003906 49.050781 263.9375 50.277344 265.84375 51.550781 C 267.746094 52.824219 269.621094 54.140625 271.460938 55.507812 C 273.300781 56.871094 275.105469 58.28125 276.878906 59.734375 C 278.648438 61.1875 280.382812 62.683594 282.082031 64.222656 C 283.777344 65.757812 285.4375 67.339844 287.054688 68.957031 C 288.675781 70.578125 290.253906 72.238281 291.792969 73.933594 C 293.332031 75.632812 294.828125 77.367188 296.28125 79.136719 C 297.734375 80.910156 299.144531 82.714844 300.507812 84.554688 C 301.875 86.394531 303.191406 88.265625 304.464844 90.171875 C 305.738281 92.078125 306.964844 94.011719 308.140625 95.976562 C 309.320312 97.941406 310.449219 99.933594 311.527344 101.957031 C 312.609375 103.976562 313.636719 106.023438 314.617188 108.09375 C 315.597656 110.164062 316.523438 112.257812 317.402344 114.375 C 318.277344 116.492188 319.101562 118.628906 319.875 120.785156 C 320.648438 122.941406 321.363281 125.117188 322.03125 127.308594 C 322.695312 129.5 323.304688 131.707031 323.863281 133.929688 C 324.417969 136.152344 324.921875 138.386719 325.367188 140.636719 C 325.816406 142.882812 326.207031 145.140625 326.542969 147.40625 C 326.878906 149.671875 327.160156 151.945312 327.382812 154.222656 C 327.609375 156.503906 327.777344 158.789062 327.890625 161.078125 C 328 163.363281 328.058594 165.65625 328.058594 167.945312 Z M 328.058594 167.945312 " fill-opacity="1" fill-rule="nonzero"/><g clip-path="url(#id1)"><path fill="#37363b" d="M 286.824219 32.179688 C 263.023438 14.816406 234.464844 3.554688 203.421875 0.738281 C 195.175781 0 188.003906 6.4375 188.003906 14.75 L 188.003906 15.488281 C 188.003906 22.726562 193.5 28.828125 200.742188 29.5 C 226.417969 31.847656 250.019531 41.164062 269.796875 55.511719 C 304.527344 80.789062 327.050781 121.753906 327.050781 167.945312 C 327.050781 172.4375 326.851562 176.929688 326.382812 181.355469 C 319.476562 253.828125 256.855469 310.144531 181.835938 306.859375 C 110.097656 303.777344 51.96875 245.515625 49.019531 173.777344 C 46.070312 101.707031 97.894531 41.230469 166.347656 30.503906 C 173.589844 29.367188 178.886719 22.996094 178.414062 15.6875 L 178.347656 14.949219 C 177.8125 6.636719 170.304688 0.671875 162.058594 1.945312 C 80.933594 14.617188 18.984375 85.347656 20.125 170.292969 C 21.332031 260.398438 94.8125 334.214844 184.917969 335.890625 C 274.558594 337.5 348.4375 268.847656 355.410156 181.355469 C 355.746094 176.929688 356.015625 172.4375 356.015625 167.945312 C 356.015625 112.164062 328.726562 62.6875 286.824219 32.179688 Z M 286.824219 32.179688 " fill-opacity="1" fill-rule="nonzero"/></g><path fill="#ffffff" d="M 113.984375 139.652344 C 113.984375 137.375 114.253906 132.078125 116.734375 127.316406 C 119.28125 122.691406 123.773438 118.601562 132.625 118.601562 C 141.207031 118.601562 145.964844 122.691406 148.515625 127.316406 C 151.0625 132.078125 151.261719 137.375 151.261719 139.652344 L 151.261719 195.03125 C 151.261719 198.585938 151.128906 204.285156 148.582031 209.042969 C 146.035156 213.9375 141.542969 218.027344 132.558594 218.027344 C 123.574219 218.027344 119.082031 213.9375 116.535156 209.042969 C 113.984375 204.285156 113.851562 198.585938 113.851562 195.03125 L 113.851562 188.929688 L 128.132812 188.929688 C 128.132812 195.433594 128.265625 199.65625 128.804688 202.203125 C 129.339844 204.753906 130.410156 205.625 132.492188 205.625 C 134.234375 205.625 135.375 204.820312 136.042969 203.078125 C 136.578125 201.332031 136.847656 198.71875 136.847656 195.03125 L 136.847656 176.726562 C 134.300781 178.203125 132.222656 179.140625 129.675781 179.140625 C 122.234375 179.140625 118.277344 175.320312 116.199219 170.960938 C 114.054688 166.605469 113.785156 161.308594 113.785156 158.625 L 113.785156 139.652344 Z M 136.980469 135.363281 C 136.980469 134.15625 135.910156 131.003906 132.625 131.003906 C 129.605469 131.003906 128.265625 134.15625 128.265625 135.363281 L 128.265625 163.585938 C 128.265625 164.792969 129.605469 167.945312 132.625 167.945312 C 135.640625 167.945312 136.847656 165.398438 136.980469 163.988281 Z M 136.980469 135.363281 " fill-opacity="1" fill-rule="nonzero"/><path fill="#ffffff" d="M 159.242188 139.652344 C 159.242188 137.375 159.507812 132.078125 161.988281 127.316406 C 164.539062 122.691406 169.03125 118.601562 177.878906 118.601562 C 186.460938 118.601562 191.222656 122.691406 193.769531 127.316406 C 196.316406 132.078125 196.515625 137.375 196.515625 139.652344 L 196.515625 195.03125 C 196.515625 198.585938 196.382812 204.285156 193.835938 209.042969 C 191.289062 213.9375 186.796875 218.027344 177.8125 218.027344 C 168.828125 218.027344 164.335938 213.9375 161.789062 209.042969 C 159.242188 204.285156 159.105469 198.585938 159.105469 195.03125 L 159.105469 188.929688 L 173.386719 188.929688 C 173.386719 195.433594 173.519531 199.65625 174.058594 202.203125 C 174.59375 204.753906 175.667969 205.625 177.746094 205.625 C 179.488281 205.625 180.628906 204.820312 181.296875 203.078125 C 181.835938 201.332031 182.101562 198.71875 182.101562 195.03125 L 182.101562 176.726562 C 179.554688 178.203125 177.476562 179.140625 174.929688 179.140625 C 167.488281 179.140625 163.53125 175.320312 161.453125 170.960938 C 159.308594 166.605469 159.039062 161.308594 159.039062 158.625 L 159.039062 139.652344 Z M 182.304688 135.363281 C 182.304688 134.15625 181.230469 131.003906 177.945312 131.003906 C 174.929688 131.003906 173.589844 134.15625 173.589844 135.363281 L 173.589844 163.585938 C 173.589844 164.792969 174.929688 167.945312 177.945312 167.945312 C 180.964844 167.945312 182.171875 165.398438 182.304688 163.988281 Z M 182.304688 135.363281 " fill-opacity="1" fill-rule="nonzero"/><path fill="#ffffff" d="M 224.945312 158.023438 C 224.808594 162.378906 223.199219 165.464844 220.585938 167.675781 C 219.246094 168.882812 217.300781 169.421875 214.753906 169.421875 C 209.457031 169.421875 207.042969 166.738281 205.636719 163.722656 C 204.832031 162.113281 204.429688 160.300781 204.429688 158.023438 L 204.429688 129.796875 C 204.429688 125.574219 206.039062 122.625 208.785156 120.277344 C 210.128906 119.070312 212.070312 118.535156 214.753906 118.535156 C 219.914062 118.535156 222.195312 121.417969 223.601562 124.234375 C 224.40625 125.839844 224.808594 127.652344 224.945312 129.796875 Z M 211.066406 216.953125 L 246.800781 119.605469 L 255.246094 119.605469 L 219.914062 216.953125 Z M 216.964844 129.796875 C 216.964844 128.589844 216.5625 127.519531 216.027344 126.78125 C 215.757812 126.378906 215.355469 126.242188 214.6875 126.242188 C 213.210938 126.242188 212.808594 127.183594 212.40625 128.121094 C 212.273438 128.65625 212.140625 129.195312 212.273438 129.863281 L 212.273438 158.089844 C 212.140625 159.566406 212.40625 161.644531 214.6875 161.644531 C 216.699219 161.644531 216.964844 159.496094 216.964844 158.089844 Z M 262.152344 206.765625 C 262.019531 211.121094 260.410156 214.070312 257.796875 216.285156 C 256.453125 217.492188 254.511719 218.027344 251.960938 218.027344 C 246.667969 218.027344 244.253906 215.277344 242.84375 212.460938 C 242.039062 210.855469 241.636719 209.042969 241.636719 206.765625 L 241.636719 178.539062 C 241.636719 174.316406 243.246094 171.230469 245.996094 168.882812 C 247.335938 167.675781 249.28125 167.140625 251.960938 167.140625 C 257.125 167.140625 259.40625 170.023438 260.8125 172.839844 C 261.617188 174.582031 262.019531 176.394531 262.152344 178.539062 Z M 254.175781 178.539062 C 254.175781 177.332031 253.773438 176.257812 253.238281 175.519531 C 252.96875 175.121094 252.566406 174.984375 251.894531 174.984375 C 250.421875 174.984375 250.019531 175.921875 249.617188 176.863281 C 249.480469 177.398438 249.347656 177.933594 249.480469 178.605469 L 249.480469 206.832031 C 249.347656 208.304688 249.75 209.109375 250.421875 209.847656 C 250.6875 210.25 251.226562 210.519531 251.894531 210.519531 C 253.101562 210.519531 253.503906 209.578125 253.90625 208.640625 C 254.042969 208.105469 254.175781 207.433594 254.175781 206.765625 Z M 254.175781 178.539062 " fill-opacity="1" fill-rule="nonzero"/><path fill="#414042" d="M 274.121094 211.320312 L 274.121094 119.351562 C 274.121094 115.964844 271.363281 113.21875 267.953125 113.21875 L 254.554688 113.21875 L 190.300781 177.070312 C 187.96875 179.386719 184.871094 180.664062 181.574219 180.664062 C 178.28125 180.664062 175.183594 179.386719 172.851562 177.070312 L 156.898438 161.214844 L 106.480469 211.320312 L 126.046875 211.320312 L 126.046875 205.1875 C 126.046875 201.800781 128.808594 199.058594 132.21875 199.058594 C 135.628906 199.058594 138.386719 201.800781 138.386719 205.1875 L 138.386719 211.320312 L 150.726562 211.320312 L 150.726562 180.664062 C 150.726562 177.277344 153.488281 174.53125 156.898438 174.53125 C 160.308594 174.53125 163.066406 177.277344 163.066406 180.664062 L 163.066406 211.320312 L 175.40625 211.320312 L 175.40625 205.1875 C 175.40625 201.800781 178.164062 199.058594 181.574219 199.058594 C 184.988281 199.058594 187.746094 201.800781 187.746094 205.1875 L 187.746094 211.320312 L 200.085938 211.320312 L 200.085938 180.664062 C 200.085938 177.277344 202.84375 174.53125 206.253906 174.53125 C 209.664062 174.53125 212.425781 177.277344 212.425781 180.664062 L 212.425781 211.320312 L 224.765625 211.320312 L 224.765625 156.136719 C 224.765625 152.75 227.523438 150.007812 230.933594 150.007812 C 234.34375 150.007812 237.105469 152.75 237.105469 156.136719 L 237.105469 211.320312 L 274.121094 211.320312 " fill-opacity="1" fill-rule="nonzero"/><g clip-path="url(#id2)"><path fill="#414042" d="M 285.8125 239.234375 L 277.9375 223.582031 L 97.554688 223.582031 L 89.679688 239.234375 C 89.253906 240.082031 89.03125 241.023438 89.03125 241.976562 L 89.03125 254.238281 C 89.03125 257.625 91.789062 260.371094 95.199219 260.371094 L 280.292969 260.371094 C 283.703125 260.371094 286.460938 257.625 286.460938 254.238281 L 286.460938 241.976562 C 286.460938 241.023438 286.238281 240.082031 285.8125 239.234375 " fill-opacity="1" fill-rule="nonzero"/></g><path fill="#414042" d="M 156.898438 131.613281 C 160.191406 131.613281 163.289062 132.886719 165.621094 135.207031 L 181.574219 151.058594 L 219.65625 113.21875 L 107.539062 113.21875 C 104.128906 113.21875 101.371094 115.964844 101.371094 119.351562 L 101.371094 181.714844 L 148.171875 135.207031 C 150.503906 132.886719 153.601562 131.613281 156.898438 131.613281 " fill-opacity="1" fill-rule="nonzero"/><g clip-path="url(#id3)"><path fill="#414042" d="M 177.214844 172.734375 C 178.417969 173.933594 179.996094 174.53125 181.574219 174.53125 C 183.15625 174.53125 184.734375 173.933594 185.9375 172.734375 L 261.78125 97.363281 L 261.78125 100.957031 C 261.78125 104.34375 264.542969 107.089844 267.953125 107.089844 C 271.363281 107.089844 274.121094 104.34375 274.121094 100.957031 L 274.121094 82.5625 C 274.121094 79.175781 271.363281 76.433594 267.953125 76.433594 L 249.445312 76.433594 C 246.035156 76.433594 243.273438 79.175781 243.273438 82.5625 C 243.273438 85.949219 246.035156 88.695312 249.445312 88.695312 L 253.058594 88.695312 L 181.574219 159.730469 L 161.257812 139.539062 C 160.054688 138.34375 158.476562 137.746094 156.898438 137.746094 C 155.320312 137.746094 153.738281 138.34375 152.535156 139.539062 L 101.371094 190.386719 L 101.371094 207.726562 L 156.898438 152.546875 L 177.214844 172.734375 " fill-opacity="1" fill-rule="nonzero"/></g></svg>