
<svg xmlns="http://www.w3.org/2000/svg" xmlns:xlink="http://www.w3.org/1999/xlink" width="25%" zoomAndPan="magnify" viewBox="0 0 375 374.999991" height="width" preserveAspectRatio="xMidYMid meet" version="1.0"><defs><clipPath id="id1"><path d="M 30.203125 7 L 344.453125 7 L 344.453125 320 L 30.203125 320 Z M 30.203125 7 " clip-rule="nonzero"/></clipPath><clipPath id="id2"><path d="M 105.59375 90.058594 L 255.59375 90.058594 L 255.59375 240.058594 L 105.59375 240.058594 Z M 105.59375 90.058594 " clip-rule="nonzero"/></clipPath></defs><path fill="#ffffff" d="M 343.632812 163.40625 C 343.632812 165.957031 343.570312 168.511719 343.445312 171.0625 C 343.320312 173.613281 343.132812 176.160156 342.878906 178.703125 C 342.628906 181.246094 342.316406 183.78125 341.941406 186.304688 C 341.570312 188.832031 341.132812 191.347656 340.632812 193.855469 C 340.136719 196.359375 339.578125 198.851562 338.957031 201.328125 C 338.335938 203.808594 337.65625 206.269531 336.914062 208.710938 C 336.171875 211.15625 335.371094 213.582031 334.511719 215.988281 C 333.652344 218.390625 332.734375 220.773438 331.753906 223.132812 C 330.777344 225.496094 329.742188 227.828125 328.652344 230.136719 C 327.558594 232.445312 326.414062 234.726562 325.207031 236.980469 C 324.003906 239.234375 322.746094 241.457031 321.433594 243.648438 C 320.121094 245.835938 318.753906 247.996094 317.335938 250.117188 C 315.917969 252.242188 314.449219 254.332031 312.925781 256.382812 C 311.40625 258.433594 309.835938 260.445312 308.214844 262.421875 C 306.597656 264.394531 304.929688 266.328125 303.214844 268.222656 C 301.5 270.117188 299.738281 271.964844 297.933594 273.769531 C 296.128906 275.578125 294.28125 277.339844 292.386719 279.054688 C 290.496094 280.769531 288.5625 282.4375 286.589844 284.058594 C 284.613281 285.679688 282.601562 287.25 280.550781 288.769531 C 278.5 290.292969 276.414062 291.761719 274.289062 293.183594 C 272.167969 294.601562 270.011719 295.96875 267.820312 297.28125 C 265.628906 298.59375 263.410156 299.851562 261.15625 301.054688 C 258.90625 302.261719 256.625 303.410156 254.316406 304.5 C 252.007812 305.59375 249.675781 306.628906 247.316406 307.605469 C 244.957031 308.582031 242.574219 309.503906 240.171875 310.363281 C 237.765625 311.222656 235.34375 312.023438 232.898438 312.765625 C 230.457031 313.507812 227.996094 314.1875 225.519531 314.808594 C 223.042969 315.429688 220.550781 315.988281 218.046875 316.488281 C 215.542969 316.984375 213.027344 317.421875 210.503906 317.796875 C 207.976562 318.171875 205.441406 318.484375 202.902344 318.734375 C 200.359375 318.984375 197.816406 319.171875 195.265625 319.296875 C 192.714844 319.425781 190.164062 319.488281 187.609375 319.488281 C 185.054688 319.488281 182.503906 319.425781 179.953125 319.296875 C 177.402344 319.171875 174.855469 318.984375 172.316406 318.734375 C 169.773438 318.484375 167.242188 318.171875 164.714844 317.796875 C 162.191406 317.421875 159.675781 316.984375 157.171875 316.488281 C 154.664062 315.988281 152.175781 315.429688 149.699219 314.808594 C 147.222656 314.1875 144.761719 313.507812 142.316406 312.765625 C 139.875 312.023438 137.449219 311.222656 135.046875 310.363281 C 132.640625 309.503906 130.261719 308.582031 127.902344 307.605469 C 125.542969 306.628906 123.207031 305.59375 120.902344 304.5 C 118.59375 303.410156 116.3125 302.261719 114.058594 301.054688 C 111.808594 299.851562 109.585938 298.59375 107.398438 297.28125 C 105.207031 295.96875 103.050781 294.601562 100.925781 293.183594 C 98.804688 291.761719 96.71875 290.292969 94.667969 288.769531 C 92.613281 287.25 90.601562 285.679688 88.628906 284.058594 C 86.65625 282.4375 84.722656 280.769531 82.832031 279.054688 C 80.9375 277.339844 79.089844 275.578125 77.285156 273.769531 C 75.476562 271.964844 73.71875 270.117188 72.003906 268.222656 C 70.289062 266.328125 68.621094 264.394531 67 262.421875 C 65.382812 260.445312 63.8125 258.433594 62.289062 256.382812 C 60.769531 254.332031 59.300781 252.242188 57.878906 250.117188 C 56.460938 247.996094 55.097656 245.835938 53.785156 243.648438 C 52.472656 241.457031 51.210938 239.234375 50.007812 236.980469 C 48.804688 234.726562 47.65625 232.445312 46.566406 230.136719 C 45.472656 227.828125 44.441406 225.496094 43.460938 223.132812 C 42.484375 220.773438 41.566406 218.390625 40.707031 215.988281 C 39.847656 213.582031 39.046875 211.15625 38.304688 208.710938 C 37.5625 206.269531 36.882812 203.808594 36.261719 201.328125 C 35.640625 198.851562 35.082031 196.359375 34.582031 193.855469 C 34.085938 191.347656 33.648438 188.832031 33.273438 186.304688 C 32.898438 183.78125 32.585938 181.246094 32.335938 178.703125 C 32.085938 176.160156 31.898438 173.613281 31.773438 171.0625 C 31.648438 168.511719 31.585938 165.957031 31.585938 163.40625 C 31.585938 160.851562 31.648438 158.296875 31.773438 155.746094 C 31.898438 153.195312 32.085938 150.648438 32.335938 148.105469 C 32.585938 145.5625 32.898438 143.027344 33.273438 140.503906 C 33.648438 137.976562 34.085938 135.460938 34.582031 132.953125 C 35.082031 130.449219 35.640625 127.957031 36.261719 125.480469 C 36.882812 123 37.5625 120.539062 38.304688 118.097656 C 39.046875 115.652344 39.847656 113.226562 40.707031 110.820312 C 41.566406 108.417969 42.484375 106.035156 43.460938 103.675781 C 44.441406 101.3125 45.472656 98.980469 46.566406 96.671875 C 47.65625 94.363281 48.804688 92.082031 50.007812 89.828125 C 51.210938 87.574219 52.472656 85.351562 53.785156 83.160156 C 55.097656 80.972656 56.460938 78.8125 57.878906 76.691406 C 59.300781 74.566406 60.769531 72.476562 62.289062 70.425781 C 63.8125 68.375 65.382812 66.363281 67 64.386719 C 68.621094 62.414062 70.289062 60.480469 72.003906 58.585938 C 73.71875 56.691406 75.476562 54.84375 77.285156 53.039062 C 79.089844 51.230469 80.9375 49.46875 82.832031 47.753906 C 84.722656 46.039062 86.65625 44.371094 88.628906 42.75 C 90.601562 41.128906 92.613281 39.558594 94.667969 38.039062 C 96.71875 36.515625 98.804688 35.046875 100.925781 33.625 C 103.050781 32.207031 105.207031 30.839844 107.398438 29.527344 C 109.585938 28.214844 111.808594 26.957031 114.058594 25.753906 C 116.3125 24.546875 118.59375 23.398438 120.902344 22.308594 C 123.207031 21.214844 125.542969 20.179688 127.902344 19.203125 C 130.261719 18.226562 132.640625 17.304688 135.046875 16.445312 C 137.449219 15.585938 139.875 14.785156 142.316406 14.042969 C 144.761719 13.300781 147.222656 12.621094 149.699219 12 C 152.175781 11.378906 154.664062 10.820312 157.171875 10.320312 C 159.675781 9.824219 162.191406 9.386719 164.714844 9.011719 C 167.242188 8.636719 169.773438 8.324219 172.316406 8.074219 C 174.855469 7.824219 177.402344 7.636719 179.953125 7.511719 C 182.503906 7.386719 185.054688 7.320312 187.609375 7.320312 C 190.164062 7.320312 192.714844 7.386719 195.265625 7.511719 C 197.816406 7.636719 200.359375 7.824219 202.902344 8.074219 C 205.441406 8.324219 207.976562 8.636719 210.503906 9.011719 C 213.027344 9.386719 215.542969 9.824219 218.046875 10.320312 C 220.550781 10.820312 223.042969 11.378906 225.519531 12 C 227.996094 12.621094 230.457031 13.300781 232.898438 14.042969 C 235.34375 14.785156 237.765625 15.585938 240.171875 16.445312 C 242.574219 17.304688 244.957031 18.226562 247.316406 19.203125 C 249.675781 20.179688 252.007812 21.214844 254.316406 22.308594 C 256.625 23.398438 258.90625 24.546875 261.15625 25.753906 C 263.410156 26.957031 265.628906 28.214844 267.820312 29.527344 C 270.011719 30.839844 272.167969 32.207031 274.289062 33.625 C 276.414062 35.046875 278.5 36.515625 280.550781 38.039062 C 282.601562 39.558594 284.613281 41.128906 286.589844 42.75 C 288.5625 44.371094 290.496094 46.039062 292.386719 47.753906 C 294.28125 49.46875 296.128906 51.230469 297.933594 53.039062 C 299.738281 54.84375 301.5 56.691406 303.214844 58.585938 C 304.929688 60.480469 306.597656 62.414062 308.214844 64.386719 C 309.835938 66.363281 311.40625 68.375 312.925781 70.425781 C 314.449219 72.476562 315.917969 74.566406 317.335938 76.691406 C 318.757812 78.8125 320.121094 80.972656 321.433594 83.160156 C 322.746094 85.351562 324.003906 87.574219 325.207031 89.828125 C 326.414062 92.082031 327.558594 94.363281 328.652344 96.671875 C 329.742188 98.980469 330.777344 101.3125 331.753906 103.675781 C 332.734375 106.035156 333.652344 108.417969 334.511719 110.820312 C 335.371094 113.226562 336.171875 115.652344 336.914062 118.097656 C 337.65625 120.539062 338.335938 123 338.957031 125.480469 C 339.578125 127.957031 340.136719 130.449219 340.632812 132.953125 C 341.132812 135.460938 341.570312 137.976562 341.941406 140.503906 C 342.316406 143.027344 342.628906 145.5625 342.878906 148.105469 C 343.132812 150.648438 343.320312 153.195312 343.445312 155.746094 C 343.570312 158.296875 343.632812 160.851562 343.632812 163.40625 Z M 343.632812 163.40625 " fill-opacity="1" fill-rule="nonzero"/><path fill="#ffffff" d="M 318.214844 163.40625 C 318.214844 165.542969 318.160156 167.679688 318.054688 169.816406 C 317.953125 171.949219 317.792969 174.082031 317.585938 176.210938 C 317.375 178.339844 317.113281 180.460938 316.800781 182.574219 C 316.488281 184.691406 316.121094 186.796875 315.703125 188.894531 C 315.289062 190.992188 314.820312 193.078125 314.300781 195.152344 C 313.78125 197.226562 313.210938 199.285156 312.589844 201.332031 C 311.96875 203.378906 311.300781 205.40625 310.578125 207.421875 C 309.859375 209.433594 309.089844 211.429688 308.273438 213.402344 C 307.453125 215.378906 306.589844 217.332031 305.675781 219.265625 C 304.761719 221.199219 303.800781 223.109375 302.792969 224.996094 C 301.785156 226.878906 300.730469 228.738281 299.632812 230.574219 C 298.535156 232.40625 297.390625 234.214844 296.203125 235.992188 C 295.015625 237.769531 293.785156 239.519531 292.511719 241.234375 C 291.238281 242.953125 289.925781 244.636719 288.566406 246.289062 C 287.210938 247.945312 285.816406 249.5625 284.378906 251.148438 C 282.945312 252.730469 281.472656 254.277344 279.960938 255.789062 C 278.449219 257.304688 276.902344 258.777344 275.316406 260.214844 C 273.734375 261.648438 272.117188 263.046875 270.464844 264.402344 C 268.8125 265.757812 267.128906 267.074219 265.410156 268.347656 C 263.691406 269.621094 261.945312 270.851562 260.167969 272.039062 C 258.390625 273.226562 256.585938 274.371094 254.753906 275.46875 C 252.917969 276.570312 251.0625 277.625 249.175781 278.632812 C 247.289062 279.640625 245.382812 280.601562 243.449219 281.515625 C 241.515625 282.429688 239.5625 283.296875 237.589844 284.113281 C 235.613281 284.929688 233.621094 285.699219 231.609375 286.421875 C 229.597656 287.140625 227.566406 287.8125 225.523438 288.433594 C 223.476562 289.054688 221.417969 289.625 219.34375 290.144531 C 217.269531 290.664062 215.183594 291.132812 213.089844 291.546875 C 210.992188 291.964844 208.886719 292.332031 206.773438 292.644531 C 204.660156 292.957031 202.539062 293.21875 200.410156 293.429688 C 198.285156 293.640625 196.152344 293.796875 194.015625 293.902344 C 191.882812 294.007812 189.746094 294.058594 187.609375 294.058594 C 185.472656 294.058594 183.335938 294.007812 181.199219 293.902344 C 179.066406 293.796875 176.933594 293.640625 174.808594 293.429688 C 172.679688 293.21875 170.558594 292.957031 168.445312 292.644531 C 166.332031 292.332031 164.226562 291.964844 162.128906 291.546875 C 160.03125 291.132812 157.949219 290.664062 155.875 290.144531 C 153.800781 289.625 151.742188 289.054688 149.695312 288.433594 C 147.652344 287.8125 145.621094 287.140625 143.609375 286.421875 C 141.597656 285.699219 139.601562 284.929688 137.628906 284.113281 C 135.652344 283.296875 133.699219 282.429688 131.769531 281.515625 C 129.835938 280.601562 127.925781 279.640625 126.042969 278.632812 C 124.15625 277.625 122.296875 276.570312 120.464844 275.46875 C 118.632812 274.371094 116.824219 273.226562 115.046875 272.039062 C 113.269531 270.851562 111.523438 269.621094 109.808594 268.347656 C 108.089844 267.074219 106.40625 265.757812 104.753906 264.402344 C 103.101562 263.046875 101.484375 261.648438 99.898438 260.214844 C 98.316406 258.777344 96.769531 257.304688 95.257812 255.789062 C 93.746094 254.277344 92.273438 252.730469 90.835938 251.148438 C 89.402344 249.5625 88.007812 247.945312 86.648438 246.289062 C 85.292969 244.636719 83.980469 242.953125 82.707031 241.234375 C 81.433594 239.519531 80.203125 237.769531 79.015625 235.992188 C 77.828125 234.214844 76.683594 232.410156 75.585938 230.574219 C 74.488281 228.738281 73.433594 226.878906 72.425781 224.996094 C 71.417969 223.109375 70.457031 221.199219 69.542969 219.265625 C 68.628906 217.332031 67.761719 215.378906 66.945312 213.402344 C 66.128906 211.429688 65.359375 209.433594 64.636719 207.421875 C 63.917969 205.40625 63.25 203.378906 62.628906 201.332031 C 62.007812 199.285156 61.4375 197.226562 60.917969 195.152344 C 60.398438 193.078125 59.929688 190.992188 59.511719 188.894531 C 59.097656 186.796875 58.730469 184.691406 58.417969 182.574219 C 58.105469 180.460938 57.84375 178.339844 57.632812 176.210938 C 57.421875 174.082031 57.265625 171.949219 57.160156 169.816406 C 57.054688 167.679688 57.003906 165.542969 57.003906 163.40625 C 57.003906 161.265625 57.054688 159.128906 57.160156 156.992188 C 57.265625 154.859375 57.421875 152.726562 57.632812 150.597656 C 57.84375 148.46875 58.105469 146.347656 58.417969 144.234375 C 58.730469 142.117188 59.097656 140.011719 59.511719 137.914062 C 59.929688 135.816406 60.398438 133.730469 60.917969 131.65625 C 61.4375 129.582031 62.007812 127.523438 62.628906 125.476562 C 63.25 123.429688 63.917969 121.402344 64.636719 119.386719 C 65.359375 117.375 66.128906 115.378906 66.945312 113.40625 C 67.761719 111.429688 68.628906 109.476562 69.542969 107.542969 C 70.457031 105.609375 71.417969 103.699219 72.425781 101.8125 C 73.433594 99.929688 74.488281 98.070312 75.585938 96.234375 C 76.683594 94.402344 77.828125 92.59375 79.015625 90.816406 C 80.203125 89.039062 81.433594 87.289062 82.707031 85.574219 C 83.980469 83.855469 85.292969 82.171875 86.648438 80.519531 C 88.007812 78.863281 89.402344 77.246094 90.835938 75.664062 C 92.273438 74.078125 93.746094 72.53125 95.257812 71.019531 C 96.769531 69.503906 98.316406 68.03125 99.898438 66.597656 C 101.484375 65.160156 103.101562 63.761719 104.753906 62.40625 C 106.40625 61.050781 108.089844 59.734375 109.808594 58.460938 C 111.523438 57.1875 113.269531 55.957031 115.046875 54.769531 C 116.824219 53.582031 118.632812 52.4375 120.464844 51.339844 C 122.296875 50.238281 124.15625 49.183594 126.042969 48.175781 C 127.925781 47.167969 129.835938 46.207031 131.769531 45.292969 C 133.699219 44.378906 135.652344 43.511719 137.628906 42.695312 C 139.601562 41.878906 141.597656 41.109375 143.609375 40.386719 C 145.621094 39.667969 147.652344 38.996094 149.695312 38.375 C 151.742188 37.753906 153.800781 37.183594 155.875 36.664062 C 157.949219 36.144531 160.03125 35.675781 162.128906 35.261719 C 164.226562 34.84375 166.332031 34.476562 168.445312 34.164062 C 170.558594 33.851562 172.679688 33.589844 174.808594 33.378906 C 176.933594 33.167969 179.066406 33.011719 181.199219 32.90625 C 183.335938 32.800781 185.472656 32.75 187.609375 32.75 C 189.746094 32.75 191.882812 32.800781 194.015625 32.90625 C 196.152344 33.011719 198.285156 33.167969 200.410156 33.378906 C 202.539062 33.589844 204.660156 33.851562 206.773438 34.164062 C 208.886719 34.476562 210.992188 34.84375 213.089844 35.261719 C 215.183594 35.675781 217.269531 36.144531 219.34375 36.664062 C 221.417969 37.183594 223.476562 37.753906 225.523438 38.375 C 227.566406 38.996094 229.597656 39.667969 231.609375 40.386719 C 233.621094 41.109375 235.613281 41.878906 237.589844 42.695312 C 239.5625 43.511719 241.515625 44.378906 243.449219 45.292969 C 245.382812 46.207031 247.289062 47.167969 249.175781 48.175781 C 251.0625 49.183594 252.917969 50.238281 254.753906 51.339844 C 256.585938 52.4375 258.390625 53.582031 260.167969 54.769531 C 261.945312 55.957031 263.691406 57.1875 265.410156 58.460938 C 267.128906 59.734375 268.8125 61.050781 270.464844 62.40625 C 272.117188 63.761719 273.734375 65.160156 275.316406 66.597656 C 276.902344 68.03125 278.449219 69.503906 279.960938 71.019531 C 281.472656 72.53125 282.945312 74.078125 284.378906 75.664062 C 285.816406 77.246094 287.210938 78.863281 288.566406 80.519531 C 289.925781 82.171875 291.238281 83.855469 292.511719 85.574219 C 293.785156 87.289062 295.015625 89.039062 296.203125 90.816406 C 297.390625 92.59375 298.535156 94.402344 299.632812 96.234375 C 300.730469 98.070312 301.785156 99.929688 302.792969 101.8125 C 303.800781 103.699219 304.761719 105.609375 305.675781 107.542969 C 306.589844 109.476562 307.453125 111.429688 308.273438 113.40625 C 309.089844 115.378906 309.859375 117.375 310.578125 119.386719 C 311.300781 121.402344 311.96875 123.429688 312.589844 125.476562 C 313.210938 127.523438 313.78125 129.582031 314.300781 131.65625 C 314.820312 133.730469 315.289062 135.816406 315.703125 137.914062 C 316.121094 140.011719 316.488281 142.117188 316.800781 144.234375 C 317.113281 146.347656 317.375 148.46875 317.585938 150.597656 C 317.792969 152.726562 317.953125 154.859375 318.054688 156.992188 C 318.160156 159.128906 318.214844 161.265625 318.214844 163.40625 Z M 318.214844 163.40625 " fill-opacity="1" fill-rule="nonzero"/><g clip-path="url(#id1)"><path fill="#37363b" d="M 279.742188 36.328125 C 257.648438 20.253906 231.101562 9.769531 202.359375 7.070312 C 194.449219 6.316406 187.609375 12.535156 187.609375 20.507812 C 187.609375 27.476562 192.878906 33.253906 199.785156 33.878906 C 223.632812 36.078125 245.535156 44.804688 263.863281 58.175781 C 296.246094 81.785156 317.273438 119.957031 317.273438 163.089844 C 317.273438 167.296875 317.085938 171.503906 316.644531 175.585938 C 310.304688 241.886719 254.074219 293.683594 185.914062 292.867188 C 117.128906 292.050781 60.265625 236.484375 57.945312 167.546875 C 56.566406 126.988281 73.886719 90.386719 101.878906 65.710938 C 107.085938 61.128906 107.902344 53.34375 103.824219 47.753906 C 99.179688 41.289062 89.953125 40.285156 83.992188 45.558594 C 51.042969 74.691406 30.394531 117.382812 30.957031 164.972656 C 31.898438 247.472656 97.796875 315.84375 180.203125 319.613281 C 265.808594 323.566406 337.105469 258.648438 343.695312 175.585938 C 344.007812 171.441406 344.257812 167.296875 344.257812 163.089844 C 344.257812 110.980469 318.839844 64.832031 279.742188 36.328125 Z M 279.742188 36.328125 " fill-opacity="1" fill-rule="nonzero"/></g><path fill="#ffffff" d="M 117.757812 136.65625 C 117.757812 134.585938 118.007812 129.625 120.328125 125.167969 C 122.652344 120.835938 126.855469 117.007812 135.140625 117.007812 C 143.175781 117.007812 147.628906 120.835938 149.953125 125.167969 C 152.273438 129.625 152.527344 134.585938 152.527344 136.65625 L 152.527344 188.328125 C 152.527344 191.65625 152.398438 196.992188 150.078125 201.453125 C 147.757812 206.035156 143.550781 209.863281 135.140625 209.863281 C 126.730469 209.863281 122.527344 206.035156 120.203125 201.453125 C 117.882812 196.992188 117.757812 191.71875 117.757812 188.328125 L 117.757812 182.617188 L 131.125 182.617188 C 131.125 188.644531 131.25 192.597656 131.75 194.984375 C 132.253906 197.308594 133.257812 198.1875 135.203125 198.1875 C 136.835938 198.1875 137.902344 197.433594 138.53125 195.863281 C 139.03125 194.230469 139.285156 191.78125 139.285156 188.328125 L 139.285156 171.253906 C 136.960938 172.632812 134.953125 173.449219 132.628906 173.449219 C 125.726562 173.449219 122.023438 169.871094 120.015625 165.789062 C 118.070312 161.710938 117.820312 156.75 117.820312 154.300781 L 117.820312 136.65625 Z M 139.28125 132.703125 C 139.28125 131.574219 138.277344 128.621094 135.203125 128.621094 C 132.378906 128.621094 131.125 131.574219 131.125 132.703125 L 131.125 159.007812 C 131.125 160.140625 132.378906 163.089844 135.203125 163.089844 C 138.027344 163.089844 139.15625 160.765625 139.28125 159.386719 Z M 139.28125 132.703125 " fill-opacity="1" fill-rule="nonzero"/><path fill="#ffffff" d="M 196.207031 190.152344 C 196.082031 193.855469 195.328125 197.183594 194.011719 200.007812 C 192.878906 202.457031 191.1875 204.84375 188.675781 206.664062 C 186.226562 208.609375 182.839844 209.738281 178.445312 209.738281 C 173.988281 209.738281 170.539062 208.609375 168.089844 206.664062 C 165.644531 204.78125 164.011719 202.457031 162.882812 200.007812 C 161.5 197.183594 160.808594 193.855469 160.683594 190.152344 L 160.683594 136.65625 C 160.808594 133.078125 161.5625 129.75 162.882812 126.925781 C 164.011719 124.476562 165.578125 121.964844 168.089844 120.144531 C 170.539062 118.261719 173.988281 117.070312 178.445312 117.070312 C 182.902344 117.070312 186.226562 118.324219 188.675781 120.144531 C 191.125 122.03125 192.878906 124.476562 194.011719 126.925781 C 195.390625 129.75 196.082031 133.078125 196.207031 136.65625 Z M 182.839844 136.65625 C 182.839844 134.210938 182.335938 132.453125 181.082031 130.945312 C 180.453125 130.316406 179.449219 129.941406 178.382812 129.941406 C 176.0625 129.941406 174.929688 131.699219 174.429688 133.269531 C 174.050781 134.273438 173.925781 135.339844 173.925781 136.59375 L 173.925781 190.085938 C 173.925781 192.660156 174.554688 194.417969 175.808594 195.800781 C 176.4375 196.429688 177.316406 196.804688 178.382812 196.804688 C 180.707031 196.804688 181.835938 195.300781 182.335938 193.476562 C 182.714844 192.597656 182.839844 191.53125 182.839844 190.152344 Z M 182.839844 136.65625 " fill-opacity="1" fill-rule="nonzero"/><path fill="#ffffff" d="M 222.753906 153.859375 C 222.628906 157.941406 221.125 160.765625 218.675781 162.902344 C 217.421875 164.03125 215.601562 164.535156 213.214844 164.535156 C 208.257812 164.535156 206.058594 162.085938 204.679688 159.199219 C 203.925781 157.691406 203.550781 155.996094 203.550781 153.859375 L 203.550781 127.554688 C 203.550781 123.597656 205.054688 120.898438 207.628906 118.640625 C 208.882812 117.507812 210.703125 117.007812 213.214844 117.007812 C 218.046875 117.007812 220.117188 119.707031 221.5 122.34375 C 222.253906 123.851562 222.628906 125.546875 222.753906 127.554688 Z M 209.761719 208.796875 L 243.089844 117.949219 L 250.996094 117.949219 L 217.984375 208.796875 Z M 215.347656 127.492188 C 215.347656 126.363281 214.972656 125.417969 214.46875 124.667969 C 214.21875 124.289062 213.84375 124.164062 213.214844 124.164062 C 211.835938 124.164062 211.457031 125.042969 211.144531 125.921875 C 211.019531 126.425781 210.894531 126.925781 211.019531 127.554688 L 211.019531 153.859375 C 210.894531 155.242188 211.144531 157.1875 213.214844 157.1875 C 215.097656 157.1875 215.285156 155.242188 215.285156 153.859375 L 215.285156 127.492188 Z M 257.460938 199.316406 C 257.335938 203.398438 255.828125 206.097656 253.382812 208.234375 C 252.125 209.363281 250.308594 209.863281 247.921875 209.863281 C 242.964844 209.863281 240.765625 207.289062 239.386719 204.652344 C 238.632812 203.148438 238.257812 201.453125 238.257812 199.316406 L 238.257812 173.011719 C 238.257812 169.054688 239.761719 166.230469 242.335938 163.96875 C 243.589844 162.839844 245.410156 162.335938 247.921875 162.335938 C 252.753906 162.335938 254.824219 165.035156 256.207031 167.671875 C 256.960938 169.304688 257.335938 171 257.460938 173.011719 Z M 250.054688 173.011719 C 250.054688 171.878906 249.679688 170.9375 249.175781 170.183594 C 248.925781 169.808594 248.550781 169.683594 247.921875 169.683594 C 246.542969 169.683594 246.164062 170.5625 245.851562 171.441406 C 245.726562 171.941406 245.601562 172.445312 245.726562 173.074219 L 245.726562 199.378906 C 245.601562 200.761719 245.976562 201.453125 246.605469 202.207031 C 246.855469 202.582031 247.355469 202.832031 247.984375 202.832031 C 249.113281 202.832031 249.492188 201.953125 249.867188 201.074219 C 249.992188 200.574219 250.117188 199.945312 250.117188 199.316406 L 250.117188 173.011719 Z M 250.054688 173.011719 " fill-opacity="1" fill-rule="nonzero"/><path fill="#37363b" d="M 158.09375 140.058594 L 163.09375 140.058594 L 163.09375 145.058594 L 158.09375 145.058594 Z M 158.09375 140.058594 " fill-opacity="1" fill-rule="nonzero"/><path fill="#37363b" d="M 158.09375 150.058594 L 163.09375 150.058594 L 163.09375 155.058594 L 158.09375 155.058594 Z M 158.09375 150.058594 " fill-opacity="1" fill-rule="nonzero"/><path fill="#37363b" d="M 158.09375 160.058594 L 163.09375 160.058594 L 163.09375 165.058594 L 158.09375 165.058594 Z M 158.09375 160.058594 " fill-opacity="1" fill-rule="nonzero"/><path fill="#37363b" d="M 158.09375 170.058594 L 163.09375 170.058594 L 163.09375 175.058594 L 158.09375 175.058594 Z M 158.09375 170.058594 " fill-opacity="1" fill-rule="nonzero"/><path fill="#37363b" d="M 168.09375 140.058594 L 173.09375 140.058594 L 173.09375 145.058594 L 168.09375 145.058594 Z M 168.09375 140.058594 " fill-opacity="1" fill-rule="nonzero"/><path fill="#37363b" d="M 168.09375 150.058594 L 173.09375 150.058594 L 173.09375 155.058594 L 168.09375 155.058594 Z M 168.09375 150.058594 " fill-opacity="1" fill-rule="nonzero"/><path fill="#37363b" d="M 168.09375 160.058594 L 173.09375 160.058594 L 173.09375 165.058594 L 168.09375 165.058594 Z M 168.09375 160.058594 " fill-opacity="1" fill-rule="nonzero"/><path fill="#37363b" d="M 168.09375 170.058594 L 173.09375 170.058594 L 173.09375 175.058594 L 168.09375 175.058594 Z M 168.09375 170.058594 " fill-opacity="1" fill-rule="nonzero"/><path fill="#37363b" d="M 178.09375 140.058594 L 183.09375 140.058594 L 183.09375 145.058594 L 178.09375 145.058594 Z M 178.09375 140.058594 " fill-opacity="1" fill-rule="nonzero"/><path fill="#37363b" d="M 178.09375 150.058594 L 183.09375 150.058594 L 183.09375 155.058594 L 178.09375 155.058594 Z M 178.09375 150.058594 " fill-opacity="1" fill-rule="nonzero"/><path fill="#37363b" d="M 178.09375 160.058594 L 183.09375 160.058594 L 183.09375 165.058594 L 178.09375 165.058594 Z M 178.09375 160.058594 " fill-opacity="1" fill-rule="nonzero"/><path fill="#37363b" d="M 178.09375 170.058594 L 183.09375 170.058594 L 183.09375 175.058594 L 178.09375 175.058594 Z M 178.09375 170.058594 " fill-opacity="1" fill-rule="nonzero"/><path fill="#37363b" d="M 188.09375 140.058594 L 193.09375 140.058594 L 193.09375 145.058594 L 188.09375 145.058594 Z M 188.09375 140.058594 " fill-opacity="1" fill-rule="nonzero"/><path fill="#37363b" d="M 168.09375 130.058594 L 173.09375 130.058594 L 173.09375 135.058594 L 168.09375 135.058594 Z M 168.09375 130.058594 " fill-opacity="1" fill-rule="nonzero"/><path fill="#37363b" d="M 178.09375 130.058594 L 183.09375 130.058594 L 183.09375 135.058594 L 178.09375 135.058594 Z M 178.09375 130.058594 " fill-opacity="1" fill-rule="nonzero"/><path fill="#37363b" d="M 188.09375 130.058594 L 193.09375 130.058594 L 193.09375 135.058594 L 188.09375 135.058594 Z M 188.09375 130.058594 " fill-opacity="1" fill-rule="nonzero"/><path fill="#37363b" d="M 188.09375 150.058594 L 193.09375 150.058594 L 193.09375 155.058594 L 188.09375 155.058594 Z M 188.09375 150.058594 " fill-opacity="1" fill-rule="nonzero"/><path fill="#37363b" d="M 188.09375 160.058594 L 193.09375 160.058594 L 193.09375 165.058594 L 188.09375 165.058594 Z M 188.09375 160.058594 " fill-opacity="1" fill-rule="nonzero"/><path fill="#37363b" d="M 188.09375 170.058594 L 193.09375 170.058594 L 193.09375 175.058594 L 188.09375 175.058594 Z M 188.09375 170.058594 " fill-opacity="1" fill-rule="nonzero"/><path fill="#37363b" d="M 198.09375 140.058594 L 203.09375 140.058594 L 203.09375 145.058594 L 198.09375 145.058594 Z M 198.09375 140.058594 " fill-opacity="1" fill-rule="nonzero"/><path fill="#37363b" d="M 198.09375 150.058594 L 203.09375 150.058594 L 203.09375 155.058594 L 198.09375 155.058594 Z M 198.09375 150.058594 " fill-opacity="1" fill-rule="nonzero"/><path fill="#37363b" d="M 198.09375 160.058594 L 203.09375 160.058594 L 203.09375 165.058594 L 198.09375 165.058594 Z M 198.09375 160.058594 " fill-opacity="1" fill-rule="nonzero"/><path fill="#37363b" d="M 198.09375 170.058594 L 203.09375 170.058594 L 203.09375 175.058594 L 198.09375 175.058594 Z M 198.09375 170.058594 " fill-opacity="1" fill-rule="nonzero"/><g clip-path="url(#id2)"><path fill="#37363b" d="M 253.09375 127.558594 L 215.59375 127.558594 L 215.59375 92.558594 C 215.59375 91.175781 214.472656 90.058594 213.09375 90.058594 L 148.09375 90.058594 C 146.710938 90.058594 145.59375 91.175781 145.59375 92.558594 L 145.59375 127.558594 L 108.09375 127.558594 C 106.710938 127.558594 105.59375 128.675781 105.59375 130.058594 L 105.59375 220.058594 C 105.59375 221.441406 106.710938 222.558594 108.09375 222.558594 L 113.316406 222.558594 C 113.179688 223.375 113.09375 224.207031 113.09375 225.058594 L 113.09375 237.558594 C 113.09375 238.941406 114.210938 240.058594 115.59375 240.058594 L 245.59375 240.058594 C 246.972656 240.058594 248.09375 238.941406 248.09375 237.558594 L 248.09375 225.058594 C 248.09375 224.207031 248.003906 223.375 247.867188 222.558594 L 253.09375 222.558594 C 254.472656 222.558594 255.59375 221.441406 255.59375 220.058594 L 255.59375 130.058594 C 255.59375 128.675781 254.472656 127.558594 253.09375 127.558594 Z M 213.09375 197.558594 C 213.09375 200.316406 210.847656 202.558594 208.09375 202.558594 C 205.335938 202.558594 203.09375 200.316406 203.09375 197.558594 C 203.09375 194.800781 205.335938 192.558594 208.09375 192.558594 C 210.847656 192.558594 213.09375 194.800781 213.09375 197.558594 Z M 153.09375 192.558594 C 155.847656 192.558594 158.09375 194.800781 158.09375 197.558594 C 158.09375 200.316406 155.847656 202.558594 153.09375 202.558594 C 150.335938 202.558594 148.09375 200.316406 148.09375 197.558594 C 148.09375 194.800781 150.335938 192.558594 153.09375 192.558594 Z M 138.09375 235.058594 L 118.09375 235.058594 L 118.09375 225.058594 C 118.09375 219.542969 122.578125 215.058594 128.09375 215.058594 C 133.605469 215.058594 138.09375 219.542969 138.09375 225.058594 Z M 123.09375 205.058594 C 123.09375 202.300781 125.335938 200.058594 128.09375 200.058594 C 130.847656 200.058594 133.09375 202.300781 133.09375 205.058594 C 133.09375 207.816406 130.847656 210.058594 128.09375 210.058594 C 125.335938 210.058594 123.09375 207.816406 123.09375 205.058594 Z M 138.472656 214.253906 C 137.53125 213.347656 136.476562 212.5625 135.328125 211.925781 C 137.03125 210.132812 138.09375 207.722656 138.09375 205.058594 C 138.09375 199.542969 133.605469 195.058594 128.09375 195.058594 C 122.578125 195.058594 118.09375 199.542969 118.09375 205.058594 C 118.09375 207.722656 119.15625 210.132812 120.859375 211.925781 C 118.472656 213.246094 116.488281 215.203125 115.121094 217.558594 L 110.59375 217.558594 L 110.59375 132.558594 L 145.59375 132.558594 L 145.59375 191.015625 C 144.054688 192.773438 143.09375 195.042969 143.09375 197.558594 C 143.09375 200.222656 144.15625 202.632812 145.859375 204.425781 C 142.164062 206.46875 139.425781 210.027344 138.472656 214.253906 Z M 163.09375 235.058594 L 143.09375 235.058594 L 143.09375 217.558594 C 143.09375 212.042969 147.578125 207.558594 153.09375 207.558594 C 158.605469 207.558594 163.09375 212.042969 163.09375 217.558594 Z M 193.09375 235.058594 L 168.09375 235.058594 L 168.09375 217.558594 C 168.09375 210.667969 173.699219 205.058594 180.59375 205.058594 C 187.484375 205.058594 193.09375 210.667969 193.09375 217.558594 Z M 173.09375 192.558594 C 173.09375 188.425781 176.457031 185.058594 180.59375 185.058594 C 184.726562 185.058594 188.09375 188.425781 188.09375 192.558594 C 188.09375 196.695312 184.726562 200.058594 180.59375 200.058594 C 176.457031 200.058594 173.09375 196.695312 173.09375 192.558594 Z M 195.816406 208.964844 C 194.148438 206.019531 191.652344 203.605469 188.644531 202.039062 C 191.34375 199.746094 193.09375 196.371094 193.09375 192.558594 C 193.09375 185.667969 187.484375 180.058594 180.59375 180.058594 C 173.699219 180.058594 168.09375 185.667969 168.09375 192.558594 C 168.09375 196.371094 169.84375 199.746094 172.539062 202.039062 C 169.53125 203.605469 167.035156 206.019531 165.367188 208.964844 C 164.054688 207.097656 162.335938 205.535156 160.328125 204.425781 C 162.03125 202.632812 163.09375 200.222656 163.09375 197.558594 C 163.09375 192.042969 158.605469 187.558594 153.09375 187.558594 C 152.222656 187.558594 151.398438 187.703125 150.59375 187.914062 L 150.59375 95.058594 L 210.59375 95.058594 L 210.59375 187.914062 C 209.785156 187.703125 208.960938 187.558594 208.09375 187.558594 C 202.578125 187.558594 198.09375 192.042969 198.09375 197.558594 C 198.09375 200.222656 199.15625 202.632812 200.859375 204.425781 C 198.851562 205.535156 197.128906 207.097656 195.816406 208.964844 Z M 218.09375 225.058594 L 218.09375 235.058594 L 198.09375 235.058594 L 198.09375 217.558594 C 198.09375 212.042969 202.578125 207.558594 208.09375 207.558594 C 213.605469 207.558594 218.09375 212.042969 218.09375 217.558594 Z M 243.09375 235.058594 L 223.09375 235.058594 L 223.09375 225.058594 C 223.09375 219.542969 227.578125 215.058594 233.09375 215.058594 C 238.605469 215.058594 243.09375 219.542969 243.09375 225.058594 Z M 228.09375 205.058594 C 228.09375 202.300781 230.335938 200.058594 233.09375 200.058594 C 235.847656 200.058594 238.09375 202.300781 238.09375 205.058594 C 238.09375 207.816406 235.847656 210.058594 233.09375 210.058594 C 230.335938 210.058594 228.09375 207.816406 228.09375 205.058594 Z M 250.59375 217.558594 L 246.0625 217.558594 C 244.695312 215.203125 242.710938 213.246094 240.324219 211.925781 C 242.03125 210.132812 243.09375 207.722656 243.09375 205.058594 C 243.09375 199.542969 238.605469 195.058594 233.09375 195.058594 C 227.578125 195.058594 223.09375 199.542969 223.09375 205.058594 C 223.09375 207.722656 224.15625 210.132812 225.859375 211.925781 C 224.710938 212.5625 223.65625 213.347656 222.714844 214.253906 C 221.757812 210.027344 219.023438 206.46875 215.328125 204.425781 C 217.03125 202.632812 218.09375 200.222656 218.09375 197.558594 C 218.09375 195.042969 217.128906 192.773438 215.59375 191.015625 L 215.59375 132.558594 L 250.59375 132.558594 Z M 250.59375 217.558594 " fill-opacity="1" fill-rule="nonzero"/></g><path fill="#37363b" d="M 223.09375 147.558594 L 228.09375 147.558594 L 228.09375 187.558594 L 223.09375 187.558594 Z M 223.09375 147.558594 " fill-opacity="1" fill-rule="nonzero"/><path fill="#37363b" d="M 238.09375 147.558594 L 243.09375 147.558594 L 243.09375 187.558594 L 238.09375 187.558594 Z M 238.09375 147.558594 " fill-opacity="1" fill-rule="nonzero"/><path fill="#37363b" d="M 118.09375 147.558594 L 123.09375 147.558594 L 123.09375 187.558594 L 118.09375 187.558594 Z M 118.09375 147.558594 " fill-opacity="1" fill-rule="nonzero"/><path fill="#37363b" d="M 133.09375 147.558594 L 138.09375 147.558594 L 138.09375 187.558594 L 133.09375 187.558594 Z M 133.09375 147.558594 " fill-opacity="1" fill-rule="nonzero"/><path fill="#37363b" d="M 165.59375 125.058594 L 195.59375 125.058594 C 196.972656 125.058594 198.09375 123.941406 198.09375 122.558594 L 198.09375 102.558594 C 198.09375 101.175781 196.972656 100.058594 195.59375 100.058594 L 165.59375 100.058594 C 164.210938 100.058594 163.09375 101.175781 163.09375 102.558594 L 163.09375 122.558594 C 163.09375 123.941406 164.210938 125.058594 165.59375 125.058594 Z M 168.09375 105.058594 L 193.09375 105.058594 L 193.09375 120.058594 L 168.09375 120.058594 Z M 168.09375 105.058594 " fill-opacity="1" fill-rule="nonzero"/></svg>