
<svg xmlns="http://www.w3.org/2000/svg" xmlns:xlink="http://www.w3.org/1999/xlink" width="80%" zoomAndPan="magnify" viewBox="0 0 375 374.999991" height="width" preserveAspectRatio="xMidYMid meet" version="1.0"><defs><clipPath id="id1"><path d="M 6.644531 6.644531 L 364.394531 6.644531 L 364.394531 364.394531 L 6.644531 364.394531 Z M 6.644531 6.644531 " clip-rule="nonzero"/></clipPath></defs><g clip-path="url(#id1)"><path fill="#545454" d="M 326.300781 133.589844 L 312.464844 133.589844 C 312.464844 63.589844 255.519531 6.644531 185.519531 6.644531 C 166.957031 6.644531 149.097656 10.585938 132.402344 18.300781 C 131.640625 18.253906 130.890625 18.1875 130.117188 18.1875 L 44.738281 18.1875 C 23.738281 18.1875 6.644531 35.277344 6.644531 56.28125 C 6.644531 58.082031 6.765625 59.882812 7.019531 61.667969 L 14.160156 111.617188 C 16.886719 130.722656 33.5 145.128906 52.808594 145.128906 L 59.132812 145.128906 C 62.464844 182.265625 81.703125 215.640625 112.550781 237.332031 C 122.269531 244.15625 129.71875 253.464844 134.316406 264.425781 C 130.386719 267.605469 127.820312 272.40625 127.820312 277.84375 C 127.820312 282.273438 129.492188 286.320312 132.238281 289.382812 C 129.492188 292.449219 127.820312 296.492188 127.820312 300.921875 C 127.820312 305.355469 129.492188 309.398438 132.238281 312.464844 C 129.492188 315.527344 127.820312 319.574219 127.820312 324.003906 C 127.820312 332.054688 133.363281 338.777344 140.820312 340.703125 C 146.03125 354.800781 159.382812 364.394531 174.691406 364.394531 L 196.351562 364.394531 C 211.660156 364.394531 225.011719 354.800781 230.222656 340.703125 C 237.675781 338.777344 243.222656 332.054688 243.222656 324.003906 C 243.222656 319.574219 241.546875 315.527344 238.800781 312.464844 C 241.546875 309.398438 243.222656 305.355469 243.222656 300.921875 C 243.222656 296.492188 241.546875 292.449219 238.800781 289.382812 C 241.546875 286.320312 243.222656 282.273438 243.222656 277.84375 C 243.222656 272.40625 240.65625 267.605469 236.71875 264.433594 C 237.464844 262.660156 238.277344 260.929688 239.171875 259.246094 C 242.363281 260.070312 245.644531 260.53125 248.992188 260.53125 L 266.304688 260.53125 L 266.304688 277.84375 C 266.304688 280.175781 267.703125 282.285156 269.863281 283.175781 C 270.578125 283.476562 271.328125 283.613281 272.074219 283.613281 C 273.574219 283.613281 275.050781 283.023438 276.152344 281.921875 L 297.542969 260.53125 L 318.234375 260.53125 C 337.542969 260.53125 354.152344 246.125 356.878906 227.015625 L 364.015625 177.0625 C 364.273438 175.285156 364.394531 173.484375 364.394531 171.683594 C 364.394531 150.679688 347.304688 133.589844 326.300781 133.589844 Z M 25.589844 109.976562 L 18.453125 60.035156 C 18.277344 58.796875 18.1875 57.539062 18.1875 56.28125 C 18.1875 41.636719 30.09375 29.726562 44.738281 29.726562 L 130.121094 29.726562 C 144.761719 29.726562 156.667969 41.636719 156.667969 56.28125 C 156.667969 57.539062 156.582031 58.789062 156.398438 60.035156 L 149.265625 109.976562 C 147.351562 123.4375 135.644531 133.589844 122.046875 133.589844 L 98.96875 133.589844 C 95.777344 133.589844 93.199219 136.167969 93.199219 139.359375 L 93.199219 148.511719 L 79.96875 135.28125 C 78.886719 134.195312 77.421875 133.589844 75.886719 133.589844 L 52.808594 133.589844 C 39.210938 133.589844 27.503906 123.4375 25.589844 109.976562 Z M 119.191406 227.890625 C 91.433594 208.371094 73.996094 178.464844 70.699219 145.128906 L 73.492188 145.128906 L 94.882812 166.519531 C 95.992188 167.621094 97.46875 168.210938 98.96875 168.210938 C 99.710938 168.210938 100.460938 168.070312 101.179688 167.773438 C 103.335938 166.882812 104.738281 164.769531 104.738281 162.441406 L 104.738281 145.128906 L 122.046875 145.128906 C 141.355469 145.128906 157.96875 130.722656 160.691406 111.609375 L 167.816406 61.679688 C 168.082031 59.910156 168.210938 58.09375 168.210938 56.28125 C 168.210938 42.542969 160.871094 30.511719 149.929688 23.8125 C 161.347656 20.097656 173.265625 18.1875 185.519531 18.1875 C 249.152344 18.1875 300.921875 69.957031 300.921875 133.589844 C 300.921875 171.039062 282.574219 206.292969 251.847656 227.890625 C 240.175781 236.097656 231.285156 247.324219 225.867188 260.53125 L 145.175781 260.53125 C 139.757812 247.324219 130.867188 236.097656 119.191406 227.890625 Z M 196.351562 352.855469 L 174.691406 352.855469 C 166.015625 352.855469 158.246094 348.347656 153.820312 341.316406 L 217.226562 341.316406 C 212.796875 348.347656 205.023438 352.855469 196.351562 352.855469 Z M 225.910156 329.773438 L 145.128906 329.773438 C 141.945312 329.773438 139.359375 327.191406 139.359375 324.003906 C 139.359375 320.820312 141.945312 318.234375 145.128906 318.234375 L 225.910156 318.234375 C 229.097656 318.234375 231.683594 320.820312 231.683594 324.003906 C 231.683594 327.191406 229.097656 329.773438 225.910156 329.773438 Z M 225.910156 306.695312 L 145.128906 306.695312 C 141.945312 306.695312 139.359375 304.109375 139.359375 300.921875 C 139.359375 297.738281 141.945312 295.152344 145.128906 295.152344 L 225.910156 295.152344 C 229.097656 295.152344 231.683594 297.738281 231.683594 300.921875 C 231.683594 304.109375 229.097656 306.695312 225.910156 306.695312 Z M 225.910156 283.613281 L 145.128906 283.613281 C 141.945312 283.613281 139.359375 281.027344 139.359375 277.84375 C 139.359375 274.65625 141.945312 272.074219 145.128906 272.074219 L 225.910156 272.074219 C 229.097656 272.074219 231.683594 274.65625 231.683594 277.84375 C 231.683594 281.027344 229.097656 283.613281 225.910156 283.613281 Z M 352.589844 175.433594 L 345.453125 225.378906 C 343.535156 238.84375 331.828125 248.992188 318.234375 248.992188 L 295.152344 248.992188 C 293.617188 248.992188 292.152344 249.597656 291.074219 250.683594 L 277.84375 263.914062 L 277.84375 254.761719 C 277.84375 251.570312 275.265625 248.992188 272.074219 248.992188 L 248.992188 248.992188 C 248.058594 248.992188 247.152344 248.820312 246.226562 248.726562 C 249.769531 244.433594 253.855469 240.589844 258.488281 237.332031 C 265.707031 232.253906 272.261719 226.460938 278.171875 220.140625 L 335.542969 220.140625 L 335.542969 208.601562 L 287.757812 208.601562 C 293.058594 201.382812 297.617188 193.664062 301.289062 185.519531 L 335.542969 185.519531 L 335.542969 173.980469 L 305.769531 173.980469 C 308.902344 164.695312 310.96875 155.023438 311.882812 145.128906 L 326.308594 145.128906 C 340.945312 145.128906 352.855469 157.039062 352.855469 171.683594 C 352.855469 172.941406 352.761719 174.199219 352.589844 175.433594 Z M 352.589844 175.433594 " fill-opacity="1" fill-rule="nonzero"/></g><path fill="#545454" d="M 150.898438 185.519531 C 150.898438 175.976562 143.132812 168.210938 133.589844 168.210938 C 124.046875 168.210938 116.277344 175.976562 116.277344 185.519531 C 116.277344 195.0625 124.046875 202.832031 133.589844 202.832031 C 143.132812 202.832031 150.898438 195.0625 150.898438 185.519531 Z M 127.820312 185.519531 C 127.820312 182.335938 130.402344 179.75 133.589844 179.75 C 136.773438 179.75 139.359375 182.335938 139.359375 185.519531 C 139.359375 188.707031 136.773438 191.289062 133.589844 191.289062 C 130.402344 191.289062 127.820312 188.707031 127.820312 185.519531 Z M 127.820312 185.519531 " fill-opacity="1" fill-rule="nonzero"/><path fill="#545454" d="M 185.519531 202.832031 C 195.0625 202.832031 202.832031 195.0625 202.832031 185.519531 C 202.832031 175.976562 195.0625 168.210938 185.519531 168.210938 C 175.976562 168.210938 168.210938 175.976562 168.210938 185.519531 C 168.210938 195.0625 175.976562 202.832031 185.519531 202.832031 Z M 185.519531 179.75 C 188.707031 179.75 191.289062 182.335938 191.289062 185.519531 C 191.289062 188.707031 188.707031 191.289062 185.519531 191.289062 C 182.335938 191.289062 179.75 188.707031 179.75 185.519531 C 179.75 182.335938 182.335938 179.75 185.519531 179.75 Z M 185.519531 179.75 " fill-opacity="1" fill-rule="nonzero"/><path fill="#545454" d="M 237.453125 202.832031 C 246.996094 202.832031 254.761719 195.0625 254.761719 185.519531 C 254.761719 175.976562 246.996094 168.210938 237.453125 168.210938 C 227.90625 168.210938 220.140625 175.976562 220.140625 185.519531 C 220.140625 195.0625 227.90625 202.832031 237.453125 202.832031 Z M 237.453125 179.75 C 240.636719 179.75 243.222656 182.335938 243.222656 185.519531 C 243.222656 188.707031 240.636719 191.289062 237.453125 191.289062 C 234.265625 191.289062 231.683594 188.707031 231.683594 185.519531 C 231.683594 182.335938 234.265625 179.75 237.453125 179.75 Z M 237.453125 179.75 " fill-opacity="1" fill-rule="nonzero"/><path fill="#545454" d="M 64.347656 58.578125 L 139.359375 58.578125 L 139.359375 70.117188 L 64.347656 70.117188 Z M 64.347656 58.578125 " fill-opacity="1" fill-rule="nonzero"/><path fill="#545454" d="M 35.496094 93.199219 L 139.359375 93.199219 L 139.359375 104.738281 L 35.496094 104.738281 Z M 35.496094 93.199219 " fill-opacity="1" fill-rule="nonzero"/></svg>