
<svg xmlns="http://www.w3.org/2000/svg" xmlns:xlink="http://www.w3.org/1999/xlink" width="70%" zoomAndPan="magnify" viewBox="0 0 375 374.999991" height="width" preserveAspectRatio="xMidYMid meet" version="1.0"><defs><clipPath id="id1"><path d="M 20.175781 20.175781 L 354.675781 20.175781 L 354.675781 354.675781 L 20.175781 354.675781 Z M 20.175781 20.175781 " clip-rule="nonzero"/></clipPath></defs><path fill="#545454" d="M 81.199219 245.308594 L 84.210938 250.578125 L 103.402344 239.46875 L 100.394531 234.199219 L 81.199219 245.308594 " fill-opacity="1" fill-rule="nonzero"/><path fill="#545454" d="M 81.199219 129.726562 L 100.394531 140.644531 L 103.402344 135.375 L 84.210938 124.460938 L 81.199219 129.726562 " fill-opacity="1" fill-rule="nonzero"/><path fill="#545454" d="M 124.285156 290.671875 L 129.554688 293.871094 L 140.652344 274.671875 L 135.386719 271.472656 L 124.285156 290.671875 " fill-opacity="1" fill-rule="nonzero"/><path fill="#545454" d="M 293.617188 129.726562 L 290.605469 124.460938 L 271.417969 135.375 L 274.425781 140.644531 L 293.617188 129.726562 " fill-opacity="1" fill-rule="nonzero"/><path fill="#545454" d="M 195.214844 47.28125 L 179.601562 47.28125 L 187.503906 60.269531 Z M 195.214844 47.28125 " fill-opacity="1" fill-rule="nonzero"/><path fill="#545454" d="M 124.285156 84.175781 L 135.386719 103.375 L 140.652344 100.363281 L 129.554688 81.164062 L 124.285156 84.175781 " fill-opacity="1" fill-rule="nonzero"/><path fill="#545454" d="M 187.503906 81.914062 C 190.328125 82.480469 192.960938 83.046875 192.960938 85.304688 C 192.960938 87.9375 187.878906 88.316406 185.8125 87.75 C 184.683594 87.375 183.554688 86.808594 182.988281 85.679688 L 177.15625 88.695312 C 178.660156 91.515625 181.292969 93.210938 184.113281 94.152344 C 190.328125 95.847656 199.167969 93.023438 199.542969 85.492188 C 199.730469 77.964844 194.277344 76.832031 188.820312 75.515625 C 186 74.949219 183.175781 74.386719 183.175781 72.128906 C 183.363281 69.492188 188.253906 69.117188 190.328125 69.679688 C 191.640625 70.054688 192.773438 70.621094 193.335938 71.753906 L 198.980469 68.738281 C 197.660156 65.914062 195.027344 64.222656 192.015625 63.28125 C 185.8125 61.585938 176.96875 64.410156 176.777344 71.941406 C 176.402344 79.46875 182.046875 80.597656 187.503906 81.914062 " fill-opacity="1" fill-rule="nonzero"/><path fill="#545454" d="M 47.335938 195.234375 L 60.128906 187.519531 L 47.335938 179.609375 Z M 47.335938 195.234375 " fill-opacity="1" fill-rule="nonzero"/><path fill="#545454" d="M 94.558594 195.800781 L 94.558594 190.714844 L 92.113281 189.964844 L 79.320312 186.765625 L 92.113281 183.5625 L 94.558594 183 L 94.558594 177.917969 L 92.113281 177.351562 L 62.953125 170.199219 L 62.765625 176.976562 L 77.8125 180.554688 L 62.765625 184.316406 L 62.765625 189.398438 L 77.8125 193.164062 L 62.765625 196.742188 L 62.953125 203.332031 L 92.113281 196.363281 L 94.558594 195.800781 " fill-opacity="1" fill-rule="nonzero"/><path fill="#545454" d="M 191.640625 283.707031 L 191.640625 298.015625 L 181.292969 281.824219 L 180.355469 280.316406 L 175.273438 280.316406 L 175.273438 312.128906 L 181.859375 312.128906 L 181.859375 294.625 L 192.207031 310.625 L 193.144531 312.128906 L 198.226562 312.128906 L 198.226562 280.316406 L 191.640625 280.316406 L 191.640625 283.707031 " fill-opacity="1" fill-rule="nonzero"/><path fill="#545454" d="M 314.691406 187.519531 L 327.484375 195.234375 L 327.484375 179.609375 Z M 314.691406 187.519531 " fill-opacity="1" fill-rule="nonzero"/><path fill="#545454" d="M 271.417969 239.46875 L 290.605469 250.578125 L 293.617188 245.308594 L 274.425781 234.199219 L 271.417969 239.46875 " fill-opacity="1" fill-rule="nonzero"/><path fill="#545454" d="M 280.261719 198.058594 L 286.84375 198.058594 L 286.84375 184.882812 L 292.867188 184.882812 L 292.867188 193.164062 L 299.449219 193.164062 L 299.449219 184.882812 L 305.46875 184.882812 L 305.46875 198.058594 L 312.054688 198.058594 L 312.054688 178.292969 C 301.519531 178.292969 290.796875 178.292969 280.261719 178.292969 L 280.261719 198.058594 " fill-opacity="1" fill-rule="nonzero"/><g clip-path="url(#id1)"><path fill="#545454" d="M 187.503906 333.777344 C 106.597656 333.777344 41.125 268.269531 41.125 187.519531 C 41.125 106.574219 106.597656 41.070312 187.503906 41.070312 C 268.21875 41.070312 333.691406 106.574219 333.691406 187.519531 C 333.691406 268.269531 268.21875 333.777344 187.503906 333.777344 Z M 187.503906 20.175781 C 95.121094 20.175781 20.242188 95.089844 20.242188 187.519531 C 20.242188 279.945312 95.121094 354.675781 187.503906 354.675781 C 279.691406 354.675781 354.578125 279.945312 354.578125 187.519531 C 354.578125 95.089844 279.691406 20.175781 187.503906 20.175781 " fill-opacity="1" fill-rule="nonzero"/></g><path fill="#545454" d="M 187.503906 208.976562 C 175.648438 208.976562 166.054688 199.378906 166.054688 187.519531 C 166.054688 175.660156 175.648438 166.058594 187.503906 166.058594 C 199.167969 166.058594 208.765625 175.660156 208.765625 187.519531 C 208.765625 199.378906 199.167969 208.976562 187.503906 208.976562 Z M 175.460938 160.414062 C 165.113281 164.929688 157.777344 175.28125 157.777344 187.519531 C 157.777344 192.226562 158.902344 196.550781 160.789062 200.507812 L 154.765625 277.117188 L 199.359375 214.625 C 209.890625 210.105469 217.042969 199.566406 217.042969 187.519531 C 217.042969 182.8125 215.914062 178.292969 214.03125 174.339844 L 220.050781 97.917969 L 175.460938 160.414062 " fill-opacity="1" fill-rule="nonzero"/><path fill="#545454" d="M 179.601562 327.753906 L 195.214844 327.753906 L 187.503906 314.765625 Z M 179.601562 327.753906 " fill-opacity="1" fill-rule="nonzero"/><path fill="#545454" d="M 234.160156 100.363281 L 239.429688 103.375 L 250.53125 84.175781 L 245.265625 81.164062 L 234.160156 100.363281 " fill-opacity="1" fill-rule="nonzero"/><path fill="#545454" d="M 234.160156 274.671875 L 245.265625 293.871094 L 250.53125 290.671875 L 239.429688 271.472656 L 234.160156 274.671875 " fill-opacity="1" fill-rule="nonzero"/></svg>