
<svg xmlns="http://www.w3.org/2000/svg" xmlns:xlink="http://www.w3.org/1999/xlink" width="70%" zoomAndPan="magnify" viewBox="0 0 375 374.999991" height="width" preserveAspectRatio="xMidYMid meet" version="1.0"><defs><clipPath id="id1"><path d="M 43.316406 100 L 169 100 L 169 331.316406 L 43.316406 331.316406 Z M 43.316406 100 " clip-rule="nonzero"/></clipPath><clipPath id="id2"><path d="M 206 100 L 331.316406 100 L 331.316406 331.316406 L 206 331.316406 Z M 206 100 " clip-rule="nonzero"/></clipPath><clipPath id="id3"><path d="M 105 43.316406 L 269 43.316406 L 269 226 L 105 226 Z M 105 43.316406 " clip-rule="nonzero"/></clipPath></defs><g clip-path="url(#id1)"><path fill="#545454" d="M 91.316406 308.550781 L 91.316406 331.316406 L 100.914062 331.316406 L 100.914062 307.316406 C 100.914062 306.507812 100.707031 305.703125 100.316406 304.988281 L 57.152344 227.289062 C 54.378906 222.300781 52.914062 216.660156 52.914062 210.957031 L 52.914062 120.113281 C 52.914062 114.828125 57.226562 110.515625 62.515625 110.515625 C 67.800781 110.515625 72.113281 114.828125 72.113281 120.113281 L 72.113281 189.003906 C 66.171875 195.957031 66.171875 206.289062 72.433594 213.171875 L 111.769531 256.425781 L 118.859375 249.957031 L 79.539062 206.703125 C 76.410156 203.253906 76.519531 197.964844 79.820312 194.664062 C 81.546875 192.957031 83.851562 192.097656 86.234375 192.113281 C 88.652344 192.191406 90.863281 193.203125 92.476562 195.003906 L 126.152344 232.410156 C 126.488281 232.785156 127.144531 233.253906 127.597656 233.515625 C 146.664062 244.410156 158.515625 264.828125 158.515625 286.800781 L 158.515625 331.316406 L 168.113281 331.316406 L 168.113281 283.316406 L 168.003906 283.316406 C 166.820312 259.519531 153.695312 237.695312 132.769531 225.433594 L 99.621094 188.589844 C 96.226562 184.800781 91.558594 182.664062 86.476562 182.515625 C 84.828125 182.476562 83.253906 182.722656 81.714844 183.078125 L 81.714844 120.113281 C 81.714844 109.519531 73.109375 100.914062 62.515625 100.914062 C 51.921875 100.914062 43.316406 109.519531 43.316406 120.113281 L 43.316406 210.957031 C 43.316406 218.289062 45.191406 225.546875 48.753906 231.941406 L 91.316406 308.550781 " fill-opacity="1" fill-rule="nonzero"/></g><g clip-path="url(#id2)"><path fill="#545454" d="M 312.113281 100.914062 C 301.519531 100.914062 292.914062 109.519531 292.914062 120.113281 L 292.914062 183.078125 C 291.378906 182.722656 289.785156 182.476562 288.152344 182.515625 C 283.070312 182.664062 278.402344 184.800781 275.007812 188.589844 L 241.859375 225.414062 C 221.066406 237.488281 207.808594 259.410156 206.628906 283.316406 L 206.515625 283.316406 L 206.515625 331.316406 L 216.113281 331.316406 L 216.113281 286.800781 C 216.113281 264.828125 227.964844 244.410156 247.257812 233.382812 C 247.707031 233.121094 248.121094 232.800781 248.476562 232.410156 L 282.152344 195.003906 C 283.765625 193.203125 285.976562 192.191406 288.394531 192.113281 C 290.871094 192.113281 293.082031 192.957031 294.808594 194.664062 C 298.109375 197.964844 298.222656 203.253906 295.089844 206.703125 L 255.769531 249.957031 L 262.859375 256.425781 L 302.195312 213.171875 C 308.457031 206.289062 308.457031 195.957031 302.515625 189.003906 L 302.515625 120.113281 C 302.515625 114.828125 306.828125 110.515625 312.113281 110.515625 C 317.402344 110.515625 321.714844 114.828125 321.714844 120.113281 L 321.714844 210.453125 C 321.714844 216.453125 320.101562 222.339844 317.007812 227.609375 L 274.316406 304.988281 C 273.921875 305.703125 273.714844 306.507812 273.714844 307.316406 L 273.714844 331.316406 L 283.316406 331.316406 L 283.316406 308.550781 L 325.351562 232.371094 C 329.253906 225.734375 331.316406 218.160156 331.316406 210.453125 L 331.316406 120.113281 C 331.316406 109.519531 322.707031 100.914062 312.113281 100.914062 " fill-opacity="1" fill-rule="nonzero"/></g><g clip-path="url(#id3)"><path fill="#545454" d="M 259.316406 173.703125 L 192.113281 212.589844 L 192.113281 137.328125 L 259.316406 99.527344 Z M 187.316406 129.003906 L 156.566406 111.714844 L 223.578125 74.027344 L 254.328125 91.316406 Z M 182.515625 212.589844 L 115.316406 173.703125 L 115.316406 99.527344 L 182.515625 137.328125 Z M 187.316406 53.628906 L 213.789062 68.515625 L 146.777344 106.203125 L 120.300781 91.316406 Z M 268.914062 176.476562 L 268.914062 91.316406 C 268.914062 90.882812 268.859375 90.472656 268.746094 90.058594 C 268.707031 89.925781 268.632812 89.796875 268.578125 89.664062 C 268.484375 89.402344 268.410156 89.140625 268.257812 88.914062 C 268.183594 88.765625 268.070312 88.671875 267.976562 88.539062 C 267.828125 88.332031 267.695312 88.109375 267.507812 87.921875 C 267.394531 87.828125 267.265625 87.753906 267.152344 87.640625 C 266.945312 87.488281 266.757812 87.300781 266.535156 87.171875 C 266.535156 87.171875 266.515625 87.171875 266.496094 87.152344 C 266.476562 87.152344 266.476562 87.132812 266.457031 87.132812 L 189.660156 43.933594 C 188.195312 43.109375 186.433594 43.109375 184.972656 43.933594 L 108.171875 87.132812 C 108.152344 87.132812 108.152344 87.152344 108.132812 87.152344 C 108.132812 87.171875 108.097656 87.171875 108.097656 87.171875 C 107.871094 87.300781 107.683594 87.488281 107.476562 87.640625 C 107.363281 87.753906 107.234375 87.828125 107.121094 87.921875 C 106.933594 88.109375 106.800781 88.332031 106.652344 88.539062 C 106.558594 88.671875 106.445312 88.765625 106.371094 88.914062 C 106.222656 89.140625 106.144531 89.402344 106.050781 89.664062 C 105.996094 89.796875 105.921875 89.925781 105.882812 90.058594 C 105.769531 90.472656 105.714844 90.882812 105.714844 91.316406 L 105.714844 176.476562 C 105.714844 178.203125 106.632812 179.777344 108.113281 180.640625 L 184.914062 225.058594 C 184.914062 225.058594 184.914062 225.078125 184.914062 225.078125 C 185.195312 225.246094 185.515625 225.339844 185.832031 225.453125 C 185.910156 225.472656 185.984375 225.527344 186.078125 225.566406 C 186.488281 225.660156 186.902344 225.714844 187.316406 225.714844 C 187.726562 225.714844 188.140625 225.660156 188.550781 225.566406 C 188.644531 225.527344 188.722656 225.472656 188.796875 225.453125 C 189.113281 225.339844 189.433594 225.246094 189.714844 225.078125 C 189.714844 225.078125 189.714844 225.058594 189.714844 225.058594 L 266.515625 180.640625 C 267.996094 179.777344 268.914062 178.203125 268.914062 176.476562 " fill-opacity="1" fill-rule="nonzero"/></g><path fill="#545454" d="M 249.714844 163.316406 L 240.113281 163.316406 L 240.113281 172.914062 L 249.714844 172.914062 L 249.714844 163.316406 " fill-opacity="1" fill-rule="nonzero"/><path fill="#545454" d="M 230.515625 172.914062 L 220.914062 172.914062 L 220.914062 182.515625 L 230.515625 182.515625 L 230.515625 172.914062 " fill-opacity="1" fill-rule="nonzero"/><path fill="#545454" d="M 211.316406 182.515625 L 201.714844 182.515625 L 201.714844 192.113281 L 211.316406 192.113281 L 211.316406 182.515625 " fill-opacity="1" fill-rule="nonzero"/></svg>